MeshVersionFormatted 1
Dimension 3
Vertices
379
1.5 0.5 0.5 0
0.5 0.5 1.5 0
1.5 0.5 1.5 0
2.5 0.5 1.5 0
1.5 0.5 2.5 0
1.5 0.5 0 0
2 0.5 0.5 0
1.5 0.5 1 0
1 0.5 0.5 0
1.5 0 0.5 0
1.5 1 0.5 0
0.5 0.5 1 0
1 0.5 1.5 0
0.5 0.5 2 0
0 0.5 1.5 0
0.5 0 1.5 0
0.5 1 1.5 0
2 0.5 1.5 0
1.5 0.5 2 0
1.5 0 1.5 0
1.5 1 1.5 0
2.5 0.5 1 0
3 0.5 1.5 0
2.5 0.5 2 0
2.5 0 1.5 0
2.5 1 1.5 0
2 0.5 2.5 0
1.5 0.5 3 0
1 0.5 2.5 0
1.5 0 2.5 0
1.5 1 2.5 0
1 0.5 0 0
1.5 1 0 0
2 0.5 0 0
1.5 0.125 0.125 0
2 1 0.5 0
2 0.5 1 0
2 0 0.5 0
1.5 0 1 0
1.5 1 1 0
1 0.5 1 0
1 1 0.5 0
1 0 0.5 0
0.5 0 1 0
0.5 1 1 0
0 0.5 1 0
1 1 1.5 0
1 0.5 2 0
1 0 1.5 0
0.5 0 2 0
0.5 1 2 0
0 0.5 2 0
0.125 0.125 1.5 0
0 1 1.5 0
2 1 1.5 0
2 0.5 2 0
2 0 1.5 0
1.5 0 2 0
1.5 1 2 0
2.5 0 1 0
3 0.5 1 0
2.5 1 1 0
3 1 1.5 0
3 0.5 2 0
2.875 0.125 1.5 0
2.5 0 2 0
2.5 1 2 0
2 1 2.5 0
2 0.5 3 0
2 0 2.5 0
1.5 0.125 2.875 0
1.5 1 3 0
1 0.5 3 0
1 1 2.5 0
1 0 2.5 0
1 1 0 0
1 0.125 0.125 0
2 1 0 0
2 0.125 0.125 0
2 1 1 0
2 0 1 0
1 0 1 0
1 1 1 0
0.125 0.125 1 0
0 1 1 0
1 1 2 0
1 0 2 0
0.125 0.125 2 0
0 1 2 0
2 1 2 0
2 0 2 0
2.875 0.125 1 0
3 1 1 0
3 1 2 0
2.875 0.125 2 0
2 1 3 0
2 0.125 2.875 0
1 0.125 2.875 0
1 1 3 0
2.5 1.5 1.5 0
1.5 2.5 1.5 0
2.5 2.5 1.5 0
2.5 2.5 2.5 0
2.5 1.5 1 0
3 1.5 1.5 0
2.5 1.5 2 0
2 1.5 1.5 0
2.5 2 1.5 0
1.5 2.5 1 0
2 2.5 1.5 0
1.5 2.5 2 0
1 2.5 1.5 0
1.5 2 1.5 0
1.5 3 1.5 0
2.5 2.5 1 0
3 2.5 1.5 0
2.5 2.5 2 0
2.5 3 1.5 0
3 2.5 2.5 0
2.5 2.5 3 0
2 2.5 2.5 0
2.5 2 2.5 0
2.5 3 2.5 0
3 1.5 1 0
2.5 2 1 0
2 1.5 1 0
3 2 1.5 0
3 1.5 2 0
2.5 2 2 0
2 1.5 2 0
2 2 1.5 0
1.5 2 1 0
2 2.5 1 0
1.5 3 1 0
1 2.5 1 0
2 3 1.5 0
2 2.5 2 0
1.5 2 2 0
1.5 3 2 0
1 2.5 2 0
1 3 1.5 0
1 2 1.5 0
3 2.5 1 0
2.5 3 1 0
2.875 2.875 1.5 0
3 2.5 2 0
2.5 3 2 0
2.875 2.875 2.5 0
2.875 2.5 2.875 0
3 2 2.5 0
2.5 2 3 0
2.5 2.875 2.875 0
2 2.5 3 0
2 3 2.5 0
2 2 2.5 0
2.0089285714285712 1.0089285714285714 1.0089285714285714 0
3 2 1 0
2 2 1 0
3 2 2 0
2.0089285714285712 1.0089285714285714 1.9910714285714286 0
2 2 2 0
1.03125 2 1.015625 0
2 3 1 0
1 3 1 0
2 3 2 0
1.03125 2 1.984375 0
1 3 2 0
2.875 2.875 1 0
2.875 2.875 2 0
2.7777777777777781 2.7777777777777781 2.7777777777777781 0
2.875 2 2.875 0
2 2 3 0
2 2.875 2.875 0
0.5 1.5 0.5 0
0.5 2.5 0.5 0
0.5 1.5 1.5 0
0.5 1.5 0 0
1 1.5 0.5 0
0.5 1.5 1 0
0 1.5 0.5 0
0.5 1 0.5 0
0.5 2 0.5 0
0.5 2.5 0 0
1 2.5 0.5 0
0.5 2.5 1 0
0 2.5 0.5 0
0.5 3 0.5 0
1 1.5 1.5 0
0.5 1.5 2 0
0 1.5 1.5 0
0.5 2 1.5 0
0.125 1.5 0.125 0
0.5 2 0 0
1 1.5 0 0
0.5 1 0 0
1 2 0.5 0
1 1.5 1 0
0.5 2 1 0
0 1.5 1 0
0 1 0.5 0
0 2 0.5 0
0.125 2.5 0.125 0
0.5 2.875 0.125 0
1 2.5 0 0
1 3 0.5 0
0.5 3 1 0
0 2.5 1 0
0.125 2.875 0.5 0
1 1.5 2 0
0.5 2 2 0
0 1.5 2 0
0 2 1.5 0
0.125 1 0.125 0
0.125 2 0.125 0
1 2 0 0
1 2 1 0
0 2 1 0
0.22222222222222221 2.7777777777777781 0.22222222222222221 0
1 2.875 0.125 0
0.125 2.875 1 0
0.984375 1.984375 1.96875 0
0.984375 1.015625 1.96875 0
0 2 2 0
1.5 1.5 2.5 0
1.5 1.5 2 0
2 1.5 2.5 0
1.5 1.5 3 0
1 1.5 2.5 0
1.5 2 2.5 0
2 1.5 3 0
1.5 2 3 0
1 1.5 3 0
1 2 2.5 0
1.9910714285714286 1.0089285714285714 2.0089285714285712 0
1.0089285714285714 1.0089285714285714 2.0089285714285712 0
1.9910714285714286 1.9910714285714286 2.0089285714285712 0
1.0089285714285714 1.9910714285714286 2.0089285714285712 0
1 2 3 0
2.5 1.5 0.5 0
2.5 1.5 0 0
3 1.5 0.5 0
2 1.5 0.5 0
2.5 1 0.5 0
2.5 2 0.5 0
2 1.5 0 0
2.5 2 0 0
2.875 1.5 0.125 0
2.5 1 0 0
3 2 0.5 0
3 1 0.5 0
2 2 0.5 0
2 2 0 0
2.875 2 0.125 0
2.875 1 0.125 0
2.0089285714285712 1.0089285714285714 0.9910714285714286 0
2.0089285714285712 1.9910714285714286 0.9910714285714286 0
0.5 2.5 1.5 0
0.5 2.5 2.5 0
0.5 2.5 2 0
0 2.5 1.5 0
0.5 3 1.5 0
1 2.5 2.5 0
0.5 2.5 3 0
0 2.5 2.5 0
0.5 2 2.5 0
0.5 3 2.5 0
0.5 3 2 0
0 2.5 2 0
0.125 2.875 1.5 0
1 3 2.5 0
1 2.5 3 0
0.5 2 3 0
0.5 2.875 2.875 0
0.125 2.5 2.875 0
0 2 2.5 0
0.125 2.875 2.5 0
0.9910714285714286 2.0089285714285712 1.0089285714285714 0
1 2 2 0
0.125 2.875 2 0
1 2.875 2.875 0
0.125 2 2.875 0
0.22222222222222221 2.7777777777777781 2.7777777777777781 0
1.5 1.5 0.5 0
1.5 1.5 0 0
1.5 1.5 1 0
1.5 2 0.5 0
1.5 2 0 0
1.9910714285714286 1.9910714285714286 0.9910714285714286 0
1.9910714285714286 1.0089285714285714 0.9910714285714286 0
1.0089285714285714 1.0089285714285714 0.9910714285714286 0
1.0089285714285714 1.9910714285714286 0.9910714285714286 0
0.5 1.5 2.5 0
0.5 1.5 3 0
0 1.5 2.5 0
0.5 1 2.5 0
0.5 1 3 0
0.125 1.5 2.875 0
0 1 2.5 0
0.9910714285714286 1.0089285714285714 2.0089285714285712 0
0.9910714285714286 1.9910714285714286 2.0089285714285712 0
0.125 1 2.875 0
0.5 0.5 0.5 0
0.5 0.5 0 0
0 0.5 0.5 0
0.5 0 0.5 0
0.125 0.5 0.125 0
0.5 0.125 0.125 0
0.125 0.125 0.5 0
0.22222222222222221 0.22222222222222221 0.22222222222222221 0
0.9910714285714286 0.9910714285714286 0.9910714285714286 0
2.5 0.5 2.5 0
2.5 1.5 2.5 0
3 0.5 2.5 0
2.5 0.5 3 0
2.5 0 2.5 0
2.5 1 2.5 0
3 1.5 2.5 0
2.5 1.5 3 0
3 1 2.5 0
2.875 0.5 2.875 0
2.875 0.125 2.5 0
2.5 0.125 2.875 0
2.5 1 3 0
2.875 1.5 2.875 0
2.875 1 2.875 0
2.7777777777777781 0.22222222222222221 2.7777777777777781 0
2.015625 1.96875 2.015625 0
2.5 0.5 0.5 0
2.5 0.5 0 0
3 0.5 0.5 0
2.5 0 0.5 0
2.875 0.5 0.125 0
2.5 0.125 0.125 0
2.875 0.125 0.5 0
2.7777777777777781 0.22222222222222221 0.22222222222222221 0
2.0089285714285712 0.9910714285714286 0.9910714285714286 0
1.5 1.5 1.5 0
1.9910714285714286 1.0089285714285714 1.0089285714285714 0
1.0089285714285714 1.0089285714285714 1.0089285714285714 0
1.9910714285714286 1.9910714285714286 1.0089285714285714 0
1.0089285714285714 1.9910714285714286 1.0089285714285714 0
1.9910714285714286 1.9910714285714286 1.9910714285714286 0
1.9910714285714286 1.0089285714285714 1.9910714285714286 0
1.0089285714285714 1.0089285714285714 1.9910714285714286 0
1.0089285714285714 1.9910714285714286 1.9910714285714286 0
0.5 0.5 2.5 0
0.5 0.5 3 0
0 0.5 2.5 0
0.5 0 2.5 0
0.5 0.125 2.875 0
0.125 0.5 2.875 0
0.125 0.125 2.5 0
0.9910714285714286 0.9910714285714286 2.0089285714285712 0
0.22222222222222221 0.22222222222222221 2.7777777777777781 0
1.5 2.5 0.5 0
1.5 2.5 0 0
2 2.5 0.5 0
1.5 3 0.5 0
1.5 2.875 0.125 0
2 2.5 0 0
2 3 0.5 0
2 2.875 0.125 0
1.9910714285714286 2.0089285714285712 0.9910714285714286 0
1.0089285714285714 2.0089285714285712 0.9910714285714286 0
1.5 2.5 2.5 0
1.5 2.5 3 0
1.5 3 2.5 0
1.5 2.875 2.875 0
1.9910714285714286 2.0089285714285712 2.0089285714285712 0
1.0089285714285714 2.0089285714285712 2.0089285714285712 0
2.5 2.5 0.5 0
2.5 2.5 0 0
3 2.5 0.5 0
2.5 3 0.5 0
2.5 2.875 0.125 0
2.875 2.5 0.125 0
2.875 2.875 0.5 0
2.7777777777777781 2.7777777777777781 0.22222222222222221 0
2.0089285714285712 2.0089285714285712 0.9910714285714286 0
Hexahedra
216
77 32 6 35 43 9 1 10 0
32 76 33 6 9 42 11 1 0
6 33 78 34 1 11 36 7 0
35 6 34 79 10 1 7 38 0
43 9 1 10 82 41 8 39 0
9 42 11 1 41 83 40 8 0
1 11 36 7 8 40 80 37 0
10 1 7 38 39 8 37 81 0
82 44 12 41 49 16 2 13 0
44 84 46 12 16 53 15 2 0
12 46 85 45 2 15 54 17 0
41 12 45 83 13 2 17 47 0
49 16 2 13 87 50 14 48 0
16 53 15 2 50 88 52 14 0
2 15 54 17 14 52 89 51 0
13 2 17 47 48 14 51 86 0
39 8 37 81 20 3 18 57 0
82 41 8 39 49 13 3 20 0
41 83 40 8 13 47 21 3 0
8 40 80 37 3 21 55 18 0
57 20 3 18 91 58 19 56 0
20 49 13 3 58 87 48 19 0
3 13 47 21 19 48 86 59 0
18 3 21 55 56 19 59 90 0
92 60 22 61 65 25 4 23 0
60 81 37 22 25 57 18 4 0
22 37 80 62 4 18 55 26 0
61 22 62 93 23 4 26 63 0
65 25 4 23 95 66 24 64 0
25 57 18 4 66 91 56 24 0
4 18 55 26 24 56 90 67 0
23 4 26 63 64 24 67 94 0
91 58 19 56 70 30 5 27 0
58 87 48 19 30 75 29 5 0
19 48 86 59 5 29 74 31 0
56 19 59 90 27 5 31 68 0
70 30 5 27 97 71 28 69 0
30 75 29 5 71 98 73 28 0
5 29 74 31 28 73 99 72 0
27 5 31 68 69 28 72 96 0
93 62 104 124 63 26 100 105 0
62 156 126 104 26 55 107 100 0
104 126 158 125 100 107 131 108 0
124 104 125 157 105 100 108 127 0
63 26 100 105 94 67 106 128 0
26 55 107 100 67 160 130 106 0
100 107 131 108 106 130 161 129 0
105 100 108 127 128 106 129 159 0
158 132 109 133 131 113 101 110 0
132 162 135 109 113 142 112 101 0
109 135 164 134 101 112 141 114 0
133 109 134 163 110 101 114 136 0
131 113 101 110 161 138 111 137 0
113 142 112 101 138 166 140 111 0
101 112 141 114 111 140 167 139 0
110 101 114 136 137 111 139 165 0
157 125 115 143 127 108 102 116 0
125 158 133 115 108 131 110 102 0
115 133 163 144 102 110 136 118 0
143 115 144 168 116 102 118 145 0
127 108 102 116 159 129 117 146 0
108 131 110 102 129 161 137 117 0
102 110 136 118 117 137 165 147 0
116 102 118 145 146 117 147 169 0
159 129 117 146 150 122 103 119 0
129 161 137 117 122 155 121 103 0
117 137 165 147 103 121 154 123 0
146 117 147 169 119 103 123 148 0
150 122 103 119 171 151 120 149 0
122 155 121 103 151 172 153 120 0
103 121 154 123 120 153 173 152 0
119 103 123 148 149 120 152 170 0
213 192 177 195 200 180 174 181 0
192 214 193 177 180 201 182 174 0
177 193 215 194 174 182 196 178 0
195 177 194 76 181 174 178 42 0
200 180 174 181 85 199 179 45 0
180 201 182 174 199 217 198 179 0
174 182 196 178 179 198 216 197 0
181 174 178 42 45 179 197 83 0
214 202 183 193 201 186 175 182 0
202 218 203 183 186 208 187 175 0
183 203 219 204 175 187 205 184 0
193 183 204 215 182 175 184 196 0
201 186 175 182 217 207 185 198 0
186 208 187 175 207 220 206 185 0
175 187 205 184 185 206 164 135 0
182 175 184 196 198 185 135 216 0
45 179 197 83 17 176 188 47 0
85 199 179 45 54 190 176 17 0
199 217 198 179 190 212 191 176 0
179 198 216 197 176 191 142 188 0
47 17 176 188 222 51 189 209 0
17 54 190 176 51 89 211 189 0
176 190 212 191 189 211 223 210 0
188 176 191 142 209 189 210 221 0
234 59 225 130 68 31 224 226 0
59 235 209 225 31 74 228 224 0
225 209 237 138 224 228 233 229 0
130 225 138 236 226 224 229 155 0
68 31 224 226 96 72 227 230 0
31 74 228 224 72 99 232 227 0
224 228 233 229 227 232 238 231 0
226 224 229 155 230 227 231 172 0
78 245 240 248 36 242 239 243 0
245 252 246 240 242 251 244 239 0
240 246 253 247 239 244 249 241 0
248 240 247 254 243 239 241 250 0
36 242 239 243 255 126 104 62 0
242 251 244 239 126 256 125 104 0
239 244 249 241 104 125 157 124 0
243 239 241 250 62 104 124 93 0
277 198 185 135 142 191 257 112 0
217 207 185 198 212 260 257 191 0
207 220 206 185 260 269 261 257 0
185 206 164 135 257 261 141 112 0
142 191 257 112 278 210 259 140 0
191 212 260 257 210 223 268 259 0
257 260 269 261 259 268 279 267 0
112 257 261 141 140 259 267 167 0
278 210 259 140 233 265 258 262 0
210 223 268 259 265 275 264 258 0
259 268 279 267 258 264 276 266 0
140 259 267 167 262 258 266 270 0
233 265 258 262 238 272 263 271 0
265 275 264 258 272 281 274 263 0
258 264 276 266 263 274 282 273 0
262 258 266 270 271 263 273 280 0
76 194 284 33 42 178 283 11 0
194 215 287 284 178 196 286 283 0
284 287 252 245 283 286 251 242 0
33 284 245 78 11 283 242 36 0
42 178 283 11 290 197 285 40 0
178 196 286 283 197 291 132 285 0
283 286 251 242 285 132 288 126 0
11 283 242 36 40 285 126 289 0
299 51 189 209 74 295 292 228 0
51 89 211 189 295 298 294 292 0
189 211 223 210 292 294 275 265 0
209 189 210 300 228 292 265 233 0
74 295 292 228 99 296 293 232 0
295 298 294 292 296 301 297 293 0
292 294 275 265 293 297 281 272 0
228 292 265 233 232 293 272 238 0
309 306 303 307 308 304 302 305 0
306 213 195 303 304 200 181 302 0
303 195 76 32 302 181 42 9 0
307 303 32 77 305 302 9 43 0
308 304 302 305 84 46 12 44 0
304 200 181 302 46 85 45 12 0
302 181 42 9 12 45 310 41 0
305 302 9 43 44 12 41 82 0
95 66 24 64 321 315 311 313 0
66 91 56 24 315 70 27 311 0
24 56 90 67 311 27 68 316 0
64 24 67 94 313 311 316 319 0
321 315 311 313 326 322 314 320 0
315 70 27 311 322 97 69 314 0
311 27 68 316 314 69 96 323 0
313 311 316 319 320 314 323 325 0
94 67 106 128 319 316 312 317 0
67 90 130 106 316 68 226 312 0
106 130 327 129 312 226 155 122 0
128 106 129 159 317 312 122 150 0
319 316 312 317 325 323 318 324 0
316 68 226 312 323 96 230 318 0
312 226 155 122 318 230 172 151 0
317 312 122 150 324 318 151 171 0
79 34 329 333 38 7 328 331 0
34 78 248 329 7 36 243 328 0
329 248 254 332 328 243 250 330 0
333 329 332 335 331 328 330 334 0
38 7 328 331 81 37 22 60 0
7 36 243 328 37 336 62 22 0
328 243 250 330 22 62 93 61 0
331 328 330 334 60 22 61 92 0
338 40 285 126 55 21 337 107 0
40 339 197 285 21 47 188 337 0
285 197 341 132 337 188 142 113 0
126 285 132 340 107 337 113 131 0
55 21 337 107 343 59 225 130 0
21 47 188 337 59 344 209 225 0
337 188 142 113 225 209 345 138 0
107 337 113 131 130 225 138 342 0
87 50 14 48 75 349 346 29 0
50 88 52 14 349 352 348 346 0
14 52 89 51 346 348 298 295 0
48 14 51 353 29 346 295 74 0
75 349 346 29 98 350 347 73 0
349 352 348 346 350 354 351 347 0
346 348 298 295 347 351 301 296 0
29 346 295 74 73 347 296 99 0
215 204 356 287 196 184 355 286 0
204 219 359 356 184 205 358 355 0
356 359 362 360 355 358 361 357 0
287 356 360 252 286 355 357 251 0
196 184 355 286 364 135 109 132 0
184 205 358 355 135 164 134 109 0
355 358 361 357 109 134 163 133 0
286 355 357 251 132 109 133 363 0
369 138 111 137 155 229 365 121 0
138 370 140 111 229 233 262 365 0
111 140 167 139 365 262 270 367 0
137 111 139 165 121 365 367 154 0
155 229 365 121 172 231 366 153 0
229 233 262 365 231 238 271 366 0
365 262 270 367 366 271 280 368 0
121 365 367 154 153 366 368 173 0
252 360 372 246 251 357 371 244 0
360 362 375 372 357 361 374 371 0
372 375 378 376 371 374 377 373 0
246 372 376 253 244 371 373 249 0
251 357 371 244 379 133 115 125 0
357 361 374 371 133 163 144 115 0
371 374 377 373 115 144 168 143 0
244 371 373 249 125 115 143 157 0
End

