MeshVersionFormatted 1
Dimension 3
Vertices
64
0 0 0 0
1 0 0 0
2 0 0 0
3 0 0 0
0 1 0 0
1 1 0 0
2 1 0 0
3 1 0 0
0 2 0 0
1 2 0 0
2 2 0 0
3 2 0 0
0 3 0 0
1 3 0 0
2 3 0 0
3 3 0 0
0 0 1 0
1 0 1 0
2 0 1 0
3 0 1 0
0 1 1 0
1 1 1 0
2 1 1 0
3 1 1 0
0 2 1 0
1 2 1 0
2 2 1 0
3 2 1 0
0 3 1 0
1 3 1 0
2 3 1 0
3 3 1 0
0 0 2 0
1 0 2 0
2 0 2 0
3 0 2 0
0 1 2 0
1 1 2 0
2 1 2 0
3 1 2 0
0 2 2 0
1 2 2 0
2 2 2 0
3 2 2 0
0 3 2 0
1 3 2 0
2 3 2 0
3 3 2 0
0 0 3 0
1 0 3 0
2 0 3 0
3 0 3 0
0 1 3 0
1 1 3 0
2 1 3 0
3 1 3 0
0 2 3 0
1 2 3 0
2 2 3 0
3 2 3 0
0 3 3 0
1 3 3 0
2 3 3 0
3 3 3 0
Hexahedra
27
1 2 6 5 17 18 22 21 0
2 3 7 6 18 19 23 22 0
3 4 8 7 19 20 24 23 0
5 6 10 9 21 22 26 25 0
6 7 11 10 22 23 27 26 0
7 8 12 11 23 24 28 27 0
9 10 14 13 25 26 30 29 0
10 11 15 14 26 27 31 30 0
11 12 16 15 27 28 32 31 0
17 18 22 21 33 34 38 37 0
18 19 23 22 34 35 39 38 0
19 20 24 23 35 36 40 39 0
21 22 26 25 37 38 42 41 0
22 23 27 26 38 39 43 42 0
23 24 28 27 39 40 44 43 0
25 26 30 29 41 42 46 45 0
26 27 31 30 42 43 47 46 0
27 28 32 31 43 44 48 47 0
33 34 38 37 49 50 54 53 0
34 35 39 38 50 51 55 54 0
35 36 40 39 51 52 56 55 0
37 38 42 41 53 54 58 57 0
38 39 43 42 54 55 59 58 0
39 40 44 43 55 56 60 59 0
41 42 46 45 57 58 62 61 0
42 43 47 46 58 59 63 62 0
43 44 48 47 59 60 64 63 0
End
