MeshVersionFormatted 1
Dimension 3
Vertices
259
0.5 0.5 0.5 0
1.5 0.5 0.5 0
2.5 0.5 0.5 0
0.5 1.5 0.5 0
1.5 1.5 0.5 0
2.5 1.5 0.5 0
0.5 2.5 0.5 0
1.5 2.5 0.5 0
2.5 2.5 0.5 0
0.5 0.5 1.5 0
1.5 0.5 1.5 0
0.5 1.5 1.5 0
1.5 1.5 1.5 0
0.5 2.5 1.5 0
1.5 2.5 1.5 0
0.5 0.5 2.5 0
0.5 1.5 2.5 0
0.5 2.5 2.5 0
0.5 0.5 0 0
1 0.5 0.5 0
0.5 0.5 1 0
0 0.5 0.5 0
0.5 0 0.5 0
0.5 1 0.5 0
1.5 0.5 0 0
2 0.5 0.5 0
1.5 0.5 1 0
1.5 0 0.5 0
1.5 1 0.5 0
2.5 0.5 0 0
3 0.5 0.5 0
2.5 0.5 1 0
2.5 0 0.5 0
2.5 1 0.5 0
0.5 1.5 0 0
1 1.5 0.5 0
0.5 1.5 1 0
0 1.5 0.5 0
0.5 2 0.5 0
1.5 1.5 0 0
2 1.5 0.5 0
1.5 1.5 1 0
1.5 2 0.5 0
2.5 1.5 0 0
3 1.5 0.5 0
2.5 1.5 1 0
2.5 2 0.5 0
0.5 2.5 0 0
1 2.5 0.5 0
0.5 2.5 1 0
0 2.5 0.5 0
0.5 3 0.5 0
1.5 2.5 0 0
2 2.5 0.5 0
1.5 2.5 1 0
1.5 3 0.5 0
2.5 2.5 0 0
3 2.5 0.5 0
2.5 2.5 1 0
2.5 3 0.5 0
1 0.5 1.5 0
0.5 0.5 2 0
0 0.5 1.5 0
0.5 0 1.5 0
0.5 1 1.5 0
2 0.5 1.5 0
1.5 0.5 2 0
1.5 0 1.5 0
1.5 1 1.5 0
1 1.5 1.5 0
0.5 1.5 2 0
0 1.5 1.5 0
0.5 2 1.5 0
2 1.5 1.5 0
1.5 1.5 2 0
1.5 2 1.5 0
1 2.5 1.5 0
0.5 2.5 2 0
0 2.5 1.5 0
0.5 3 1.5 0
2 2.5 1.5 0
1.5 2.5 2 0
1.5 3 1.5 0
1 0.5 2.5 0
0.5 0.5 3 0
0 0.5 2.5 0
0.5 0 2.5 0
0.5 1 2.5 0
1 1.5 2.5 0
0.5 1.5 3 0
0 1.5 2.5 0
0.5 2 2.5 0
1 2.5 2.5 0
0.5 2.5 3 0
0 2.5 2.5 0
0.5 3 2.5 0
0.125 0.5 0.125 0
0.5 1 0 0
1 0.5 0 0
0.5 0.125 0.125 0
1 1 0.5 0
1 0.5 1 0
1 0 0.5 0
0.5 0 1 0
0.5 1 1 0
0 0.5 1 0
0.125 0.125 0.5 0
0 1 0.5 0
1.5 1 0 0
2 0.5 0 0
1.5 0.125 0.125 0
2 1 0.5 0
2 0.5 1 0
2 0 0.5 0
1.5 0 1 0
1.5 1 1 0
2.5 1 0 0
2.875 0.5 0.125 0
2.5 0.125 0.125 0
3 1 0.5 0
3 0.5 1 0
2.875 0.125 0.5 0
2.5 0 1 0
2.5 1 1 0
0.125 1.5 0.125 0
0.5 2 0 0
1 1.5 0 0
1 2 0.5 0
1 1.5 1 0
0.5 2 1 0
0 1.5 1 0
0 2 0.5 0
1.5 2 0 0
2 1.5 0 0
2 2 0.5 0
2 1.5 1 0
1.5 2 1 0
2.5 2 0 0
2.875 1.5 0.125 0
3 2 0.5 0
3 1.5 1 0
2.5 2 1 0
0.125 2.5 0.125 0
0.5 2.875 0.125 0
1 2.5 0 0
1 3 0.5 0
1 2.5 1 0
0.5 3 1 0
0 2.5 1 0
0.125 2.875 0.5 0
1.5 2.875 0.125 0
2 2.5 0 0
2 3 0.5 0
2 2.5 1 0
1.5 3 1 0
2.5 2.875 0.125 0
2.875 2.5 0.125 0
2.875 2.875 0.5 0
3 2.5 1 0
2.5 3 1 0
1 1 1.5 0
1 0.5 2 0
1 0 1.5 0
0.5 0 2 0
0.5 1 2 0
0 0.5 2 0
0.125 0.125 1.5 0
0 1 1.5 0
2 1 1.5 0
2 0.5 2 0
2 0 1.5 0
1.5 0 2 0
1.5 1 2 0
1 2 1.5 0
1 1.5 2 0
0.5 2 2 0
0 1.5 2 0
0 2 1.5 0
2 2 1.5 0
2 1.5 2 0
1.5 2 2 0
1 3 1.5 0
1 2.5 2 0
0.5 3 2 0
0 2.5 2 0
0.125 2.875 1.5 0
2 3 1.5 0
2 2.5 2 0
1.5 3 2 0
1 1 2.5 0
1 0.5 3 0
1 0 2.5 0
0.5 0.125 2.875 0
0.5 1 3 0
0.125 0.5 2.875 0
0.125 0.125 2.5 0
0 1 2.5 0
1 2 2.5 0
1 1.5 3 0
0.5 2 3 0
0.125 1.5 2.875 0
0 2 2.5 0
1 3 2.5 0
1 2.5 3 0
0.5 2.875 2.875 0
0.125 2.5 2.875 0
0.125 2.875 2.5 0
0.22222222222222221 0.22222222222222221 0.22222222222222221 0
0.125 1 0.125 0
1 1 0 0
1 0.125 0.125 0
1 1 1 0
1 0 1 0
0.125 0.125 1 0
0 1 1 0
2 1 0 0
2 0.125 0.125 0
2 1 1 0
2 0 1 0
2.875 1 0.125 0
2.7777777777777781 0.22222222222222221 0.22222222222222221 0
3 1 1 0
2.875 0.125 1 0
0.125 2 0.125 0
1 2 0 0
1 2 1 0
0 2 1 0
2 2 0 0
2 2 1 0
2.875 2 0.125 0
3 2 1 0
0.22222222222222221 2.7777777777777781 0.22222222222222221 0
1 2.875 0.125 0
1 3 1 0
0.125 2.875 1 0
2 2.875 0.125 0
2 3 1 0
2.7777777777777781 2.7777777777777781 0.22222222222222221 0
2.875 2.875 1 0
1 1 2 0
1 0 2 0
0.125 0.125 2 0
0 1 2 0
2 1 2 0
2 0 2 0
1 2 2 0
0 2 2 0
2 2 2 0
1 3 2 0
0.125 2.875 2 0
2 3 2 0
1 1 3 0
1 0.125 2.875 0
0.22222222222222221 0.22222222222222221 2.7777777777777781 0
0.125 1 2.875 0
1 2 3 0
0.125 2 2.875 0
1 2.875 2.875 0
0.22222222222222221 2.7777777777777781 2.7777777777777781 0
Hexahedra
144
208 100 19 97 107 23 1 22 0
97 19 98 209 22 1 24 108 0
19 99 210 98 1 20 101 24 0
100 211 99 19 23 103 20 1 0
107 23 1 22 214 104 21 106 0
22 1 24 108 106 21 105 215 0
1 20 101 24 21 102 212 105 0
23 103 20 1 104 213 102 21 0
211 111 25 99 103 28 2 20 0
99 25 109 210 20 2 29 101 0
25 110 216 109 2 26 112 29 0
111 217 110 25 28 114 26 2 0
103 28 2 20 213 115 27 102 0
20 2 29 101 102 27 116 212 0
2 26 112 29 27 113 218 116 0
28 114 26 2 115 219 113 27 0
217 119 30 110 114 33 3 26 0
110 30 117 216 26 3 34 112 0
30 118 220 117 3 31 120 34 0
119 221 118 30 33 122 31 3 0
114 33 3 26 219 123 32 113 0
26 3 34 112 113 32 124 218 0
3 31 120 34 32 121 222 124 0
33 122 31 3 123 223 121 32 0
209 98 35 125 108 24 4 38 0
125 35 126 224 38 4 39 132 0
35 127 225 126 4 36 128 39 0
98 210 127 35 24 101 36 4 0
108 24 4 38 215 105 37 131 0
38 4 39 132 131 37 130 227 0
4 36 128 39 37 129 226 130 0
24 101 36 4 105 212 129 37 0
210 109 40 127 101 29 5 36 0
127 40 133 225 36 5 43 128 0
40 134 228 133 5 41 135 43 0
109 216 134 40 29 112 41 5 0
101 29 5 36 212 116 42 129 0
36 5 43 128 129 42 137 226 0
5 41 135 43 42 136 229 137 0
29 112 41 5 116 218 136 42 0
216 117 44 134 112 34 6 41 0
134 44 138 228 41 6 47 135 0
44 139 230 138 6 45 140 47 0
117 220 139 44 34 120 45 6 0
112 34 6 41 218 124 46 136 0
41 6 47 135 136 46 142 229 0
6 45 140 47 46 141 231 142 0
34 120 45 6 124 222 141 46 0
224 126 48 143 132 39 7 51 0
143 48 144 232 51 7 52 150 0
48 145 233 144 7 49 146 52 0
126 225 145 48 39 128 49 7 0
132 39 7 51 227 130 50 149 0
51 7 52 150 149 50 148 235 0
7 49 146 52 50 147 234 148 0
39 128 49 7 130 226 147 50 0
225 133 53 145 128 43 8 49 0
145 53 151 233 49 8 56 146 0
53 152 236 151 8 54 153 56 0
133 228 152 53 43 135 54 8 0
128 43 8 49 226 137 55 147 0
49 8 56 146 147 55 155 234 0
8 54 153 56 55 154 237 155 0
43 135 54 8 137 229 154 55 0
228 138 57 152 135 47 9 54 0
152 57 156 236 54 9 60 153 0
57 157 238 156 9 58 158 60 0
138 230 157 57 47 140 58 9 0
135 47 9 54 229 142 59 154 0
54 9 60 153 154 59 160 237 0
9 58 158 60 59 159 239 160 0
47 140 58 9 142 231 159 59 0
104 213 102 21 64 163 61 10 0
214 104 21 106 167 64 10 63 0
106 21 105 215 63 10 65 168 0
21 102 212 105 10 61 161 65 0
163 61 10 64 241 162 62 164 0
64 10 63 167 164 62 166 242 0
10 65 168 63 62 165 243 166 0
61 161 65 10 162 240 165 62 0
115 219 113 27 68 171 66 11 0
213 115 27 102 163 68 11 61 0
102 27 116 212 61 11 69 161 0
27 113 218 116 11 66 169 69 0
171 66 11 68 245 170 67 172 0
68 11 61 163 172 67 162 241 0
11 69 161 61 67 173 240 162 0
66 169 69 11 170 244 173 67 0
105 212 129 37 65 161 70 12 0
215 105 37 131 168 65 12 72 0
131 37 130 227 72 12 73 178 0
37 129 226 130 12 70 174 73 0
161 70 12 65 240 175 71 165 0
65 12 72 168 165 71 177 243 0
12 73 178 72 71 176 247 177 0
70 174 73 12 175 246 176 71 0
116 218 136 42 69 169 74 13 0
212 116 42 129 161 69 13 70 0
129 42 137 226 70 13 76 174 0
42 136 229 137 13 74 179 76 0
169 74 13 69 244 180 75 173 0
69 13 70 161 173 75 175 240 0
13 76 174 70 75 181 246 175 0
74 179 76 13 180 248 181 75 0
130 226 147 50 73 174 77 14 0
227 130 50 149 178 73 14 79 0
149 50 148 235 79 14 80 186 0
50 147 234 148 14 77 182 80 0
174 77 14 73 246 183 78 176 0
73 14 79 178 176 78 185 247 0
14 80 186 79 78 184 250 185 0
77 182 80 14 183 249 184 78 0
137 229 154 55 76 179 81 15 0
226 137 55 147 174 76 15 77 0
147 55 155 234 77 15 83 182 0
55 154 237 155 15 81 187 83 0
179 81 15 76 248 188 82 181 0
76 15 77 174 181 82 183 246 0
15 83 182 77 82 189 249 183 0
81 187 83 15 188 251 189 82 0
241 162 62 164 192 84 16 87 0
164 62 166 242 87 16 86 196 0
62 165 243 166 16 88 197 86 0
162 240 165 62 84 190 88 16 0
192 84 16 87 253 191 85 193 0
87 16 86 196 193 85 195 254 0
16 88 197 86 85 194 255 195 0
84 190 88 16 191 252 194 85 0
240 175 71 165 190 89 17 88 0
165 71 177 243 88 17 91 197 0
71 176 247 177 17 92 202 91 0
175 246 176 71 89 198 92 17 0
190 89 17 88 252 199 90 194 0
88 17 91 197 194 90 201 255 0
17 92 202 91 90 200 257 201 0
89 198 92 17 199 256 200 90 0
246 183 78 176 198 93 18 92 0
176 78 185 247 92 18 95 202 0
78 184 250 185 18 96 207 95 0
183 249 184 78 93 203 96 18 0
198 93 18 92 256 204 94 200 0
92 18 95 202 200 94 206 257 0
18 96 207 95 94 205 259 206 0
93 203 96 18 204 258 205 94 0
End

