MeshVersionFormatted 1
Dimension 3
Vertices
1372
0.30902777777777779 0.30902777777777779 0.30902777777777779 0
0.28125 0.75 0.28125 0
0.75 0.75 0.25 0
0.75 0.28125 0.28125 0
0.28125 0.28125 0.75 0
0.25 0.75 0.75 0
0.75 0.75 0.75 0
0.75 0.25 0.75 0
1.25 0.28125 0.28125 0
1.25 0.75 0.25 0
1.25 0.25 0.75 0
1.25 0.75 0.75 0
0.28125 1.25 0.28125 0
0.75 1.25 0.25 0
0.25 1.25 0.75 0
0.75 1.25 0.75 0
1.25 1.25 0.25 0
1.25 1.25 0.75 0
0.75 0.25 1.25 0
0.28125 0.28125 1.25 0
0.25 0.75 1.25 0
0.75 0.75 1.25 0
1.25 0.25 1.25 0
1.25 0.75 1.25 0
0.75 1.25 1.25 0
0.25 1.25 1.25 0
1.25 1.25 1.25 0
0.33680555555555558 0.33680555555555558 0.11805555555555555 0
0.51475694444444442 0.28819444444444442 0.28819444444444442 0
0.28819444444444442 0.28819444444444442 0.51475694444444442 0
0.11805555555555555 0.33680555555555558 0.33680555555555558 0
0.33680555555555558 0.11805555555555555 0.33680555555555558 0
0.28819444444444442 0.51475694444444442 0.28819444444444442 0
0.3125 0.75 0.0625 0
0.5078125 0.75 0.2578125 0
0.2578125 0.75 0.5078125 0
0.0625 0.75 0.3125 0
0.28125 1 0.28125 0
0.75 0.75 0 0
1 0.75 0.25 0
0.75 0.75 0.5 0
0.75 0.5078125 0.2578125 0
0.75 1 0.25 0
0.75 0.3125 0.0625 0
1 0.28125 0.28125 0
0.75 0.2578125 0.5078125 0
0.75 0.0625 0.3125 0
0.5078125 0.2578125 0.75 0
0.28125 0.28125 1 0
0.0625 0.3125 0.75 0
0.3125 0.0625 0.75 0
0.2578125 0.5078125 0.75 0
0.5 0.75 0.75 0
0.25 0.75 1 0
0 0.75 0.75 0
0.25 1 0.75 0
1 0.75 0.75 0
0.75 0.75 1 0
0.75 0.5 0.75 0
0.75 1 0.75 0
1 0.25 0.75 0
0.75 0.25 1 0
0.75 0 0.75 0
1.25 0.3125 0.0625 0
1.5 0.28125 0.28125 0
1.25 0.2578125 0.5078125 0
1.25 0.0625 0.3125 0
1.25 0.5078125 0.2578125 0
1.25 0.75 0 0
1.5 0.75 0.25 0
1.25 0.75 0.5 0
1.25 1 0.25 0
1.5 0.25 0.75 0
1.25 0.25 1 0
1.25 0 0.75 0
1.25 0.5 0.75 0
1.5 0.75 0.75 0
1.25 0.75 1 0
1.25 1 0.75 0
0.3125 1.25 0.0625 0
0.5078125 1.25 0.2578125 0
0.2578125 1.25 0.5078125 0
0.0625 1.25 0.3125 0
0.28125 1.5 0.28125 0
0.75 1.25 0 0
1 1.25 0.25 0
0.75 1.25 0.5 0
0.75 1.5 0.25 0
0.5 1.25 0.75 0
0.25 1.25 1 0
0 1.25 0.75 0
0.25 1.5 0.75 0
1 1.25 0.75 0
0.75 1.25 1 0
0.75 1.5 0.75 0
1.25 1.25 0 0
1.5 1.25 0.25 0
1.25 1.25 0.5 0
1.25 1.5 0.25 0
1.5 1.25 0.75 0
1.25 1.25 1 0
1.25 1.5 0.75 0
0.75 0.5 1.25 0
0.75 0.25 1.5 0
0.75 0 1.25 0
1 0.25 1.25 0
0.5078125 0.2578125 1.25 0
0.2578125 0.5078125 1.25 0
0.28125 0.28125 1.5 0
0.3125 0.0625 1.25 0
0.0625 0.3125 1.25 0
0.25 1 1.25 0
0.25 0.75 1.5 0
0.5 0.75 1.25 0
0 0.75 1.25 0
0.75 1 1.25 0
0.75 0.75 1.5 0
1 0.75 1.25 0
1.25 0.5 1.25 0
1.25 0.25 1.5 0
1.25 0 1.25 0
1.5 0.25 1.25 0
1.25 1 1.25 0
1.25 0.75 1.5 0
1.5 0.75 1.25 0
0.75 1.5 1.25 0
0.75 1.25 1.5 0
1 1.25 1.25 0
0.5 1.25 1.25 0
0.25 1.5 1.25 0
0.25 1.25 1.5 0
0 1.25 1.25 0
1.25 1.5 1.25 0
1.25 1.25 1.5 0
1.5 1.25 1.25 0
0.20052083333333334 0.34895833333333337 0.20052083333333334 0
0.3185763888888889 0.52170138888888884 0.076388888888888895 0
0.52170138888888884 0.3185763888888889 0.076388888888888895 0
0.34895833333333337 0.20052083333333334 0.20052083333333334 0
0.50954861111111116 0.50954861111111116 0.2654079861111111 0
0.50954861111111116 0.2654079861111111 0.50954861111111116 0
0.52170138888888884 0.076388888888888895 0.3185763888888889 0
0.3185763888888889 0.076388888888888895 0.52170138888888884 0
0.2654079861111111 0.50954861111111116 0.50954861111111116 0
0.076388888888888895 0.3185763888888889 0.52170138888888884 0
0.20052083333333334 0.20052083333333334 0.34895833333333337 0
0.076388888888888895 0.52170138888888884 0.3185763888888889 0
0.15625 0.75 0.15625 0
0.3125 1 0.0625 0
0.515625 0.75 0.015625 0
0.5078125 1 0.2578125 0
0.501953125 0.75 0.501953125 0
0.2578125 1 0.5078125 0
0.015625 0.75 0.515625 0
0.0625 1 0.3125 0
0.75 1 0 0
1 0.75 0 0
0.75 0.515625 0.015625 0
1 1 0.25 0
1 0.75 0.5 0
1 0.5078125 0.2578125 0
0.75 0.501953125 0.501953125 0
0.75 1 0.5 0
1 0.3125 0.0625 0
0.75 0.15625 0.15625 0
1 0.2578125 0.5078125 0
1 0.0625 0.3125 0
0.75 0.015625 0.515625 0
0.501953125 0.501953125 0.75 0
0.5078125 0.2578125 1 0
0.515625 0.015625 0.75 0
0.3125 0.0625 1 0
0.2578125 0.5078125 1 0
0.0625 0.3125 1 0
0.15625 0.15625 0.75 0
0.015625 0.515625 0.75 0
0.5 1 0.75 0
0.5 0.75 1 0
0.25 1 1 0
0 0.75 1 0
0 1 0.75 0
1 1 0.75 0
1 0.75 1 0
1 0.5 0.75 0
0.75 0.5 1 0
0.75 1 1 0
1 0.25 1 0
1 0 0.75 0
0.75 0 1 0
1.25 0.515625 0.015625 0
1.5 0.3125 0.0625 0
1.25 0.15625 0.15625 0
1.5 0.5078125 0.2578125 0
1.5 0.2578125 0.5078125 0
1.5 0.0625 0.3125 0
1.25 0.015625 0.515625 0
1.25 0.501953125 0.501953125 0
1.25 1 0 0
1.5 0.75 0 0
1.5 1 0.25 0
1.5 0.75 0.5 0
1.25 1 0.5 0
1.5 0.5 0.75 0
1.5 0.25 1 0
1.5 0 0.75 0
1.25 0 1 0
1.25 0.5 1 0
1.5 1 0.75 0
1.5 0.75 1 0
1.25 1 1 0
0.15625 1.25 0.15625 0
0.3125 1.5 0.0625 0
0.515625 1.25 0.015625 0
0.5078125 1.5 0.2578125 0
0.501953125 1.25 0.501953125 0
0.2578125 1.5 0.5078125 0
0.015625 1.25 0.515625 0
0.0625 1.5 0.3125 0
0.75 1.5 0 0
1 1.25 0 0
1 1.5 0.25 0
1 1.25 0.5 0
0.75 1.5 0.5 0
0.5 1.5 0.75 0
0.5 1.25 1 0
0.25 1.5 1 0
0 1.25 1 0
0 1.5 0.75 0
1 1.5 0.75 0
1 1.25 1 0
0.75 1.5 1 0
1.25 1.5 0 0
1.5 1.25 0 0
1.5 1.5 0.25 0
1.5 1.25 0.5 0
1.25 1.5 0.5 0
1.5 1.5 0.75 0
1.5 1.25 1 0
1.25 1.5 1 0
0.501953125 0.501953125 1.25 0
0.75 0.5 1.5 0
1 0.5 1.25 0
1 0.25 1.5 0
0.5078125 0.2578125 1.5 0
0.75 0 1.5 0
1 0 1.25 0
0.515625 0.015625 1.25 0
0.015625 0.515625 1.25 0
0.2578125 0.5078125 1.5 0
0.0625 0.3125 1.5 0
0.3125 0.0625 1.5 0
0.15625 0.15625 1.25 0
0 1 1.25 0
0.25 1 1.5 0
0.5 1 1.25 0
0.5 0.75 1.5 0
0 0.75 1.5 0
0.75 1 1.5 0
1 1 1.25 0
1 0.75 1.5 0
1.25 0.5 1.5 0
1.5 0.5 1.25 0
1.5 0.25 1.5 0
1.25 0 1.5 0
1.5 0 1.25 0
1.25 1 1.5 0
1.5 1 1.25 0
1.5 0.75 1.5 0
0.5 1.5 1.25 0
0.75 1.5 1.5 0
1 1.5 1.25 0
1 1.25 1.5 0
0.5 1.25 1.5 0
0 1.5 1.25 0
0.25 1.5 1.5 0
0 1.25 1.5 0
1.25 1.5 1.5 0
1.5 1.5 1.25 0
1.5 1.25 1.5 0
0.24537037037037035 0.24537037037037035 0.24537037037037035 0
0.16731770833333334 0.52473958333333337 0.16731770833333334 0
0.51714409722222221 0.51714409722222221 0.030815972222222224 0
0.52473958333333337 0.16731770833333334 0.16731770833333334 0
0.50385199652777779 0.50385199652777779 0.50385199652777779 0
0.51714409722222221 0.030815972222222224 0.51714409722222221 0
0.16731770833333334 0.16731770833333334 0.52473958333333337 0
0.030815972222222224 0.51714409722222221 0.51714409722222221 0
0.15625 1 0.15625 0
0.515625 1 0.015625 0
0.501953125 1 0.501953125 0
0.015625 1 0.515625 0
1 1 0 0
1 0.515625 0.015625 0
1 1 0.5 0
1 0.501953125 0.501953125 0
1 0.15625 0.15625 0
1 0.015625 0.515625 0
0.501953125 0.501953125 1 0
0.515625 0.015625 1 0
0.15625 0.15625 1 0
0.015625 0.515625 1 0
0.5 1 1 0
0 1 1 0
1 1 1 0
1 0.5 1 0
1 0 1 0
1.5 0.515625 0.015625 0
1.5 0.15625 0.15625 0
1.5 0.501953125 0.501953125 0
1.5 0.015625 0.515625 0
1.5 1 0 0
1.5 1 0.5 0
1.5 0.5 1 0
1.5 0 1 0
1.5 1 1 0
0.15625 1.5 0.15625 0
0.515625 1.5 0.015625 0
0.501953125 1.5 0.501953125 0
0.015625 1.5 0.515625 0
1 1.5 0 0
1 1.5 0.5 0
0.5 1.5 1 0
0 1.5 1 0
1 1.5 1 0
1.5 1.5 0 0
1.5 1.5 0.5 0
1.5 1.5 1 0
0.501953125 0.501953125 1.5 0
1 0.5 1.5 0
1 0 1.5 0
0.515625 0.015625 1.5 0
0.015625 0.515625 1.5 0
0.15625 0.15625 1.5 0
0 1 1.5 0
0.5 1 1.5 0
1 1 1.5 0
1.5 0.5 1.5 0
1.5 0 1.5 0
1.5 1 1.5 0
0.5 1.5 1.5 0
1 1.5 1.5 0
0 1.5 1.5 0
1.4774848090277777 1.4774848090277777 1.4774848090277777 0
1.75 1.75 1.75 0
1.75 2.25 1.75 0
1.75 2.75 1.75 0
2.25 1.75 1.75 0
2.75 1.75 1.75 0
2.75 2.25 1.75 0
2.25 2.25 1.75 0
2.25 2.75 1.75 0
2.71875 2.71875 1.75 0
1.75 1.75 2.25 0
1.75 1.75 2.75 0
2.25 1.75 2.25 0
2.75 1.75 2.25 0
2.25 1.75 2.75 0
2.71875 1.75 2.71875 0
1.75 2.25 2.25 0
1.75 2.75 2.25 0
1.75 2.25 2.75 0
1.75 2.71875 2.71875 0
2.75 2.25 2.25 0
2.25 2.25 2.25 0
2.25 2.75 2.25 0
2.71875 2.71875 2.25 0
2.71875 2.25 2.71875 0
2.25 2.25 2.75 0
2.25 2.71875 2.71875 0
2.6909722222222228 2.6909722222222228 2.6909722222222228 0
1.75 1.75 1.5 0
1.75 2 1.75 0
1.75 1.75 2 0
1.75 1.5 1.75 0
2 1.75 1.75 0
1.5 1.75 1.75 0
1.75 2.25 1.5 0
1.75 2.5 1.75 0
1.75 2.25 2 0
2 2.25 1.75 0
1.5 2.25 1.75 0
1.75 2.75 1.5 0
1.75 3 1.75 0
1.75 2.75 2 0
2 2.75 1.75 0
1.5 2.75 1.75 0
2.25 1.75 1.5 0
2.25 2 1.75 0
2.25 1.75 2 0
2.25 1.5 1.75 0
2.5 1.75 1.75 0
2.75 1.75 1.5 0
2.75 2 1.75 0
2.75 1.75 2 0
2.75 1.5 1.75 0
3 1.75 1.75 0
2.75 2.25 1.5 0
2.7421875 2.4921875 1.75 0
2.75 2.25 2 0
3 2.25 1.75 0
2.5 2.25 1.75 0
2.25 2.25 1.5 0
2.25 2.5 1.75 0
2.25 2.25 2 0
2.25 2.75 1.5 0
2.25 3 1.75 0
2.25 2.75 2 0
2.4921875 2.7421875 1.75 0
2.71875 2.71875 1.5 0
2.6875 2.9375 1.75 0
2.71875 2.71875 2 0
2.9375 2.6875 1.75 0
1.75 2 2.25 0
1.75 1.75 2.5 0
1.75 1.5 2.25 0
2 1.75 2.25 0
1.5 1.75 2.25 0
1.75 2 2.75 0
1.75 1.75 3 0
1.75 1.5 2.75 0
2 1.75 2.75 0
1.5 1.75 2.75 0
2.25 2 2.25 0
2.25 1.75 2.5 0
2.25 1.5 2.25 0
2.5 1.75 2.25 0
2.75 2 2.25 0
2.7421875 1.75 2.4921875 0
2.75 1.5 2.25 0
3 1.75 2.25 0
2.25 2 2.75 0
2.25 1.75 3 0
2.25 1.5 2.75 0
2.4921875 1.75 2.7421875 0
2.71875 2 2.71875 0
2.6875 1.75 2.9375 0
2.71875 1.5 2.71875 0
2.9375 1.75 2.6875 0
1.75 2.5 2.25 0
1.75 2.25 2.5 0
2 2.25 2.25 0
1.5 2.25 2.25 0
1.75 3 2.25 0
1.75 2.7421875 2.4921875 0
2 2.75 2.25 0
1.5 2.75 2.25 0
1.75 2.4921875 2.7421875 0
1.75 2.25 3 0
2 2.25 2.75 0
1.5 2.25 2.75 0
1.75 2.9375 2.6875 0
1.75 2.6875 2.9375 0
2 2.71875 2.71875 0
1.5 2.71875 2.71875 0
2.7421875 2.4921875 2.25 0
2.7421875 2.25 2.4921875 0
3 2.25 2.25 0
2.5 2.25 2.25 0
2.25 2.5 2.25 0
2.25 2.25 2.5 0
2.25 3 2.25 0
2.25 2.7421875 2.4921875 0
2.4921875 2.7421875 2.25 0
2.6875 2.9375 2.25 0
2.7118055555555558 2.7118055555555558 2.4852430555555558 0
2.9375 2.6875 2.25 0
2.7118055555555558 2.4852430555555558 2.7118055555555558 0
2.6875 2.25 2.9375 0
2.9375 2.25 2.6875 0
2.4921875 2.25 2.7421875 0
2.25 2.4921875 2.7421875 0
2.25 2.25 3 0
2.25 2.9375 2.6875 0
2.25 2.6875 2.9375 0
2.4852430555555558 2.7118055555555558 2.7118055555555558 0
2.6631944444444446 2.8819444444444446 2.6631944444444446 0
2.6631944444444446 2.6631944444444446 2.8819444444444446 0
2.8819444444444446 2.6631944444444446 2.6631944444444446 0
2 1.75 1.5 0
1.75 2 1.5 0
1.5 1.75 1.5 0
1.75 1.5 1.5 0
1.5 2 1.75 0
1.75 2 2 0
2 2 1.75 0
2 1.75 2 0
1.5 1.75 2 0
1.75 1.5 2 0
1.5 1.5 1.75 0
2 1.5 1.75 0
2 2.25 1.5 0
1.75 2.5 1.5 0
1.5 2.25 1.5 0
1.5 2.5 1.75 0
1.75 2.5 2 0
2 2.5 1.75 0
2 2.25 2 0
1.5 2.25 2 0
2 2.75 1.5 0
1.75 3 1.5 0
1.5 2.75 1.5 0
1.5 3 1.75 0
1.75 3 2 0
2 3 1.75 0
2 2.75 2 0
1.5 2.75 2 0
2.5 1.75 1.5 0
2.25 2 1.5 0
2.25 1.5 1.5 0
2.25 2 2 0
2.5 2 1.75 0
2.5 1.75 2 0
2.25 1.5 2 0
2.5 1.5 1.75 0
3 1.75 1.5 0
2.75 2 1.5 0
2.75 1.5 1.5 0
2.75 2 2 0
3 2 1.75 0
3 1.75 2 0
2.75 1.5 2 0
3 1.5 1.75 0
3 2.25 1.5 0
2.7421875 2.4921875 1.5 0
2.5 2.25 1.5 0
2.498046875 2.498046875 1.75 0
2.7421875 2.4921875 2 0
2.984375 2.484375 1.75 0
3 2.25 2 0
2.5 2.25 2 0
2.25 2.5 1.5 0
2.25 2.5 2 0
2.4921875 2.7421875 1.5 0
2.25 3 1.5 0
2.25 3 2 0
2.484375 2.984375 1.75 0
2.4921875 2.7421875 2 0
2.9375 2.6875 1.5 0
2.6875 2.9375 1.5 0
2.6875 2.9375 2 0
2.84375 2.84375 1.75 0
2.9375 2.6875 2 0
1.5 2 2.25 0
1.75 2 2.5 0
2 2 2.25 0
2 1.75 2.5 0
1.5 1.75 2.5 0
1.75 1.5 2.5 0
1.5 1.5 2.25 0
2 1.5 2.25 0
1.5 2 2.75 0
1.75 2 3 0
2 2 2.75 0
2 1.75 3 0
1.5 1.75 3 0
1.75 1.5 3 0
1.5 1.5 2.75 0
2 1.5 2.75 0
2.25 2 2.5 0
2.5 2 2.25 0
2.498046875 1.75 2.498046875 0
2.25 1.5 2.5 0
2.5 1.5 2.25 0
2.7421875 2 2.4921875 0
3 2 2.25 0
2.984375 1.75 2.484375 0
2.7421875 1.5 2.4921875 0
3 1.5 2.25 0
2.25 2 3 0
2.4921875 2 2.7421875 0
2.484375 1.75 2.984375 0
2.25 1.5 3 0
2.4921875 1.5 2.7421875 0
2.6875 2 2.9375 0
2.9375 2 2.6875 0
2.84375 1.75 2.84375 0
2.6875 1.5 2.9375 0
2.9375 1.5 2.6875 0
1.5 2.5 2.25 0
1.75 2.498046875 2.498046875 0
2 2.5 2.25 0
2 2.25 2.5 0
1.5 2.25 2.5 0
1.5 3 2.25 0
1.75 2.984375 2.484375 0
2 3 2.25 0
2 2.7421875 2.4921875 0
1.5 2.7421875 2.4921875 0
1.5 2.4921875 2.7421875 0
1.75 2.484375 2.984375 0
2 2.4921875 2.7421875 0
2 2.25 3 0
1.5 2.25 3 0
1.5 2.9375 2.6875 0
1.75 2.84375 2.84375 0
2 2.9375 2.6875 0
2 2.6875 2.9375 0
1.5 2.6875 2.9375 0
2.498046875 2.498046875 2.25 0
2.7345920138888888 2.4904513888888888 2.4904513888888888 0
2.984375 2.484375 2.25 0
2.984375 2.25 2.484375 0
2.498046875 2.25 2.498046875 0
2.25 2.498046875 2.498046875 0
2.25 2.984375 2.484375 0
2.484375 2.984375 2.25 0
2.4904513888888888 2.7345920138888888 2.4904513888888888 0
2.6814236111111112 2.9236111111111112 2.4782986111111112 0
2.84375 2.84375 2.25 0
2.9236111111111112 2.6814236111111112 2.4782986111111112 0
2.4904513888888888 2.4904513888888888 2.7345920138888888 0
2.6814236111111112 2.4782986111111112 2.9236111111111112 0
2.9236111111111112 2.4782986111111112 2.6814236111111112 0
2.84375 2.25 2.84375 0
2.484375 2.25 2.984375 0
2.25 2.484375 2.984375 0
2.25 2.84375 2.84375 0
2.4782986111111112 2.9236111111111112 2.6814236111111112 0
2.4782986111111112 2.6814236111111112 2.9236111111111112 0
2.651041666666667 2.799479166666667 2.799479166666667 0
2.799479166666667 2.799479166666667 2.651041666666667 0
2.799479166666667 2.651041666666667 2.799479166666667 0
2 1.5 1.5 0
2 2 1.5 0
1.5 2 1.5 0
1.5044642857142856 1.5044642857142856 1.5044642857142856 0
1.5 2 2 0
2 2 2 0
2 1.5 2 0
1.5 1.5 2 0
2 2.5 1.5 0
1.5 2.5 1.5 0
1.5 2.5 2 0
2 2.5 2 0
2 3 1.5 0
1.5 3 1.5 0
1.5 3 2 0
2 3 2 0
2.5 1.5 1.5 0
2.5 2 1.5 0
2.5 2 2 0
2.5 1.5 2 0
3 1.5 1.5 0
3 2 1.5 0
3 2 2 0
3 1.5 2 0
2.984375 2.484375 1.5 0
2.498046875 2.498046875 1.5 0
2.498046875 2.498046875 2 0
2.984375 2.484375 2 0
2.484375 2.984375 1.5 0
2.484375 2.984375 2 0
2.84375 2.84375 1.5 0
2.84375 2.84375 2 0
1.5 2 2.5 0
2 2 2.5 0
2 1.5 2.5 0
1.5 1.5 2.5 0
1.5 2 3 0
2 2 3 0
2 1.5 3 0
1.5 1.5 3 0
2.498046875 2 2.498046875 0
2.498046875 1.5 2.498046875 0
2.984375 2 2.484375 0
2.984375 1.5 2.484375 0
2.484375 2 2.984375 0
2.484375 1.5 2.984375 0
2.84375 2 2.84375 0
2.84375 1.5 2.84375 0
1.5 2.498046875 2.498046875 0
2 2.498046875 2.498046875 0
1.5 2.984375 2.484375 0
2 2.984375 2.484375 0
1.5 2.484375 2.984375 0
2 2.484375 2.984375 0
1.5 2.84375 2.84375 0
2 2.84375 2.84375 0
2.4961480034722223 2.4961480034722223 2.4961480034722223 0
2.9691840277777777 2.4828559027777777 2.4828559027777777 0
2.4828559027777777 2.9691840277777777 2.4828559027777777 0
2.832682291666667 2.832682291666667 2.475260416666667 0
2.4828559027777777 2.4828559027777777 2.9691840277777777 0
2.832682291666667 2.475260416666667 2.832682291666667 0
2.475260416666667 2.832682291666667 2.832682291666667 0
2.7546296296296298 2.7546296296296298 2.7546296296296298 0
1.75 0.25 1.75 0
1.75 0.75 1.75 0
1.75 1.25 1.75 0
2.71875 0.28125 1.75 0
2.25 0.25 1.75 0
2.25 0.75 1.75 0
2.75 0.75 1.75 0
2.75 1.25 1.75 0
2.25 1.25 1.75 0
1.75 0.25 2.25 0
1.75 0.75 2.25 0
1.75 0.28125 2.71875 0
1.75 0.75 2.75 0
2.71875 0.28125 2.25 0
2.25 0.25 2.25 0
2.25 0.75 2.25 0
2.75 0.75 2.25 0
2.6909722222222228 0.30902777777777779 2.6909722222222228 0
2.25 0.28125 2.71875 0
2.25 0.75 2.75 0
2.71875 0.75 2.71875 0
1.75 1.25 2.25 0
1.75 1.25 2.75 0
2.75 1.25 2.25 0
2.25 1.25 2.25 0
2.71875 1.25 2.71875 0
2.25 1.25 2.75 0
1.75 0.25 1.5 0
1.75 0.5 1.75 0
1.75 0.25 2 0
1.75 0 1.75 0
2 0.25 1.75 0
1.5 0.25 1.75 0
1.75 0.75 1.5 0
1.75 1 1.75 0
1.75 0.75 2 0
2 0.75 1.75 0
1.5 0.75 1.75 0
1.75 1.25 1.5 0
1.75 1.5 1.75 0
1.75 1.25 2 0
2 1.25 1.75 0
1.5 1.25 1.75 0
2.71875 0.28125 1.5 0
2.7421875 0.5078125 1.75 0
2.71875 0.28125 2 0
2.6875 0.0625 1.75 0
2.9375 0.3125 1.75 0
2.4921875 0.2578125 1.75 0
2.25 0.25 1.5 0
2.25 0.5 1.75 0
2.25 0.25 2 0
2.25 0 1.75 0
2.25 0.75 1.5 0
2.25 1 1.75 0
2.25 0.75 2 0
2.5 0.75 1.75 0
2.75 0.75 1.5 0
2.75 1 1.75 0
2.75 0.75 2 0
3 0.75 1.75 0
2.75 1.25 1.5 0
2.75 1.5 1.75 0
2.75 1.25 2 0
3 1.25 1.75 0
2.5 1.25 1.75 0
2.25 1.25 1.5 0
2.25 1.5 1.75 0
2.25 1.25 2 0
1.75 0.5 2.25 0
1.75 0.2578125 2.4921875 0
1.75 0 2.25 0
2 0.25 2.25 0
1.5 0.25 2.25 0
1.75 1 2.25 0
1.75 0.75 2.5 0
2 0.75 2.25 0
1.5 0.75 2.25 0
1.75 0.5078125 2.7421875 0
1.75 0.3125 2.9375 0
1.75 0.0625 2.6875 0
2 0.28125 2.71875 0
1.5 0.28125 2.71875 0
1.75 1 2.75 0
1.75 0.75 3 0
2 0.75 2.75 0
1.5 0.75 2.75 0
2.7421875 0.5078125 2.25 0
2.7118055555555558 0.28819444444444442 2.4852430555555558 0
2.6875 0.0625 2.25 0
2.9375 0.3125 2.25 0
2.4921875 0.2578125 2.25 0
2.25 0.5 2.25 0
2.25 0.2578125 2.4921875 0
2.25 0 2.25 0
2.25 1 2.25 0
2.25 0.75 2.5 0
2.5 0.75 2.25 0
2.75 1 2.25 0
2.7421875 0.75 2.4921875 0
3 0.75 2.25 0
2.7118055555555558 0.51475694444444442 2.7118055555555558 0
2.6631944444444446 0.33680555555555558 2.8819444444444446 0
2.6631944444444446 0.11805555555555555 2.6631944444444446 0
2.8819444444444446 0.33680555555555558 2.6631944444444446 0
2.4852430555555558 0.28819444444444442 2.7118055555555558 0
2.25 0.5078125 2.7421875 0
2.25 0.3125 2.9375 0
2.25 0.0625 2.6875 0
2.25 1 2.75 0
2.25 0.75 3 0
2.4921875 0.75 2.7421875 0
2.71875 1 2.71875 0
2.6875 0.75 2.9375 0
2.9375 0.75 2.6875 0
1.75 1.5 2.25 0
1.75 1.25 2.5 0
2 1.25 2.25 0
1.5 1.25 2.25 0
1.75 1.5 2.75 0
1.75 1.25 3 0
2 1.25 2.75 0
1.5 1.25 2.75 0
2.75 1.5 2.25 0
2.7421875 1.25 2.4921875 0
3 1.25 2.25 0
2.5 1.25 2.25 0
2.25 1.5 2.25 0
2.25 1.25 2.5 0
2.71875 1.5 2.71875 0
2.6875 1.25 2.9375 0
2.9375 1.25 2.6875 0
2.4921875 1.25 2.7421875 0
2.25 1.5 2.75 0
2.25 1.25 3 0
2 0.25 1.5 0
1.75 0.5 1.5 0
1.5 0.25 1.5 0
1.75 0 1.5 0
1.5 0.5 1.75 0
1.75 0.5 2 0
2 0.5 1.75 0
2 0.25 2 0
1.5 0.25 2 0
1.75 0 2 0
2 0 1.75 0
1.5 0 1.75 0
2 0.75 1.5 0
1.75 1 1.5 0
1.5 0.75 1.5 0
1.5 1 1.75 0
1.75 1 2 0
2 1 1.75 0
2 0.75 2 0
1.5 0.75 2 0
2 1.25 1.5 0
1.75 1.5 1.5 0
1.5 1.25 1.5 0
1.5 1.5 1.75 0
1.75 1.5 2 0
2 1.5 1.75 0
2 1.25 2 0
1.5 1.25 2 0
2.9375 0.3125 1.5 0
2.7421875 0.5078125 1.5 0
2.4921875 0.2578125 1.5 0
2.6875 0.0625 1.5 0
2.498046875 0.501953125 1.75 0
2.7421875 0.5078125 2 0
2.984375 0.515625 1.75 0
2.9375 0.3125 2 0
2.4921875 0.2578125 2 0
2.6875 0.0625 2 0
2.84375 0.15625 1.75 0
2.484375 0.015625 1.75 0
2.25 0.5 1.5 0
2.25 0 1.5 0
2.25 0.5 2 0
2.25 0 2 0
2.5 0.75 1.5 0
2.25 1 1.5 0
2.25 1 2 0
2.5 1 1.75 0
2.5 0.75 2 0
3 0.75 1.5 0
2.75 1 1.5 0
2.75 1 2 0
3 1 1.75 0
3 0.75 2 0
3 1.25 1.5 0
2.75 1.5 1.5 0
2.5 1.25 1.5 0
2.5 1.5 1.75 0
2.75 1.5 2 0
3 1.5 1.75 0
3 1.25 2 0
2.5 1.25 2 0
2.25 1.5 1.5 0
2.25 1.5 2 0
1.5 0.5 2.25 0
1.75 0.501953125 2.498046875 0
2 0.5 2.25 0
2 0.2578125 2.4921875 0
1.5 0.2578125 2.4921875 0
1.75 0.015625 2.484375 0
2 0 2.25 0
1.5 0 2.25 0
1.5 1 2.25 0
1.75 1 2.5 0
2 1 2.25 0
2 0.75 2.5 0
1.5 0.75 2.5 0
1.5 0.5078125 2.7421875 0
1.75 0.515625 2.984375 0
2 0.5078125 2.7421875 0
2 0.3125 2.9375 0
1.5 0.3125 2.9375 0
1.75 0.15625 2.84375 0
2 0.0625 2.6875 0
1.5 0.0625 2.6875 0
1.5 1 2.75 0
1.75 1 3 0
2 1 2.75 0
2 0.75 3 0
1.5 0.75 3 0
2.498046875 0.501953125 2.25 0
2.7345920138888888 0.50954861111111116 2.4904513888888888 0
2.984375 0.515625 2.25 0
2.9236111111111112 0.3185763888888889 2.4782986111111112 0
2.4904513888888888 0.2654079861111111 2.4904513888888888 0
2.6814236111111112 0.076388888888888895 2.4782986111111112 0
2.84375 0.15625 2.25 0
2.484375 0.015625 2.25 0
2.25 0.501953125 2.498046875 0
2.25 0.015625 2.484375 0
2.25 1 2.5 0
2.5 1 2.25 0
2.498046875 0.75 2.498046875 0
2.7421875 1 2.4921875 0
3 1 2.25 0
2.984375 0.75 2.484375 0
2.4904513888888888 0.50954861111111116 2.7345920138888888 0
2.6814236111111112 0.52170138888888884 2.9236111111111112 0
2.9236111111111112 0.52170138888888884 2.6814236111111112 0
2.799479166666667 0.34895833333333337 2.799479166666667 0
2.4782986111111112 0.3185763888888889 2.9236111111111112 0
2.651041666666667 0.20052083333333334 2.799479166666667 0
2.799479166666667 0.20052083333333334 2.651041666666667 0
2.4782986111111112 0.076388888888888895 2.6814236111111112 0
2.25 0.515625 2.984375 0
2.25 0.15625 2.84375 0
2.25 1 3 0
2.4921875 1 2.7421875 0
2.484375 0.75 2.984375 0
2.6875 1 2.9375 0
2.9375 1 2.6875 0
2.84375 0.75 2.84375 0
1.5 1.5 2.25 0
1.75 1.5 2.5 0
2 1.5 2.25 0
2 1.25 2.5 0
1.5 1.25 2.5 0
1.5 1.5 2.75 0
1.75 1.5 3 0
2 1.5 2.75 0
2 1.25 3 0
1.5 1.25 3 0
2.5 1.5 2.25 0
2.7421875 1.5 2.4921875 0
3 1.5 2.25 0
2.984375 1.25 2.484375 0
2.498046875 1.25 2.498046875 0
2.25 1.5 2.5 0
2.4921875 1.5 2.7421875 0
2.6875 1.5 2.9375 0
2.9375 1.5 2.6875 0
2.84375 1.25 2.84375 0
2.484375 1.25 2.984375 0
2.25 1.5 3 0
2 0 1.5 0
2 0.5 1.5 0
1.5 0.5 1.5 0
1.5 0 1.5 0
1.5 0.5 2 0
2 0.5 2 0
2 0 2 0
1.5 0 2 0
2 1 1.5 0
1.5 1 1.5 0
1.5 1 2 0
2 1 2 0
2 1.5 1.5 0
1.5078125 1.4765625 1.5078125 0
1.5 1.5 2 0
2 1.5 2 0
2.84375 0.15625 1.5 0
2.984375 0.515625 1.5 0
2.498046875 0.501953125 1.5 0
2.484375 0.015625 1.5 0
2.498046875 0.501953125 2 0
2.984375 0.515625 2 0
2.84375 0.15625 2 0
2.484375 0.015625 2 0
2.5 1 1.5 0
2.5 1 2 0
3 1 1.5 0
3 1 2 0
3 1.5 1.5 0
2.5 1.5 1.5 0
2.5 1.5 2 0
3 1.5 2 0
1.5 0.501953125 2.498046875 0
2 0.501953125 2.498046875 0
2 0.015625 2.484375 0
1.5 0.015625 2.484375 0
1.5 1 2.5 0
2 1 2.5 0
1.5 0.515625 2.984375 0
2 0.515625 2.984375 0
2 0.15625 2.84375 0
1.5 0.15625 2.84375 0
1.5 1 3 0
2 1 3 0
2.4961480034722223 0.50385199652777779 2.4961480034722223 0
2.9691840277777777 0.51714409722222221 2.4828559027777777 0
2.832682291666667 0.16731770833333334 2.475260416666667 0
2.4828559027777777 0.030815972222222224 2.4828559027777777 0
2.498046875 1 2.498046875 0
2.984375 1 2.484375 0
2.4828559027777777 0.51714409722222221 2.9691840277777777 0
2.832682291666667 0.52473958333333337 2.832682291666667 0
2.7546296296296298 0.24537037037037035 2.7546296296296298 0
2.475260416666667 0.16731770833333334 2.832682291666667 0
2.484375 1 2.984375 0
2.84375 1 2.84375 0
1.5 1.5 2.5 0
2 1.5 2.5 0
1.5 1.5 3 0
2 1.5 3 0
2.498046875 1.5 2.498046875 0
2.984375 1.5 2.484375 0
2.484375 1.5 2.984375 0
2.84375 1.5 2.84375 0
0.25 1.75 1.75 0
0.75 1.75 1.75 0
1.25 1.75 1.75 0
0.75 2.25 1.75 0
0.25 2.25 1.75 0
0.28125 2.71875 1.75 0
0.75 2.75 1.75 0
1.25 2.25 1.75 0
1.25 2.75 1.75 0
0.25 1.75 2.25 0
0.75 1.75 2.25 0
0.28125 1.75 2.71875 0
0.75 1.75 2.75 0
0.75 2.25 2.25 0
0.25 2.25 2.25 0
0.28125 2.71875 2.25 0
0.75 2.75 2.25 0
0.75 2.25 2.75 0
0.28125 2.25 2.71875 0
0.30902777777777779 2.6909722222222228 2.6909722222222228 0
0.75 2.71875 2.71875 0
1.25 1.75 2.25 0
1.25 1.75 2.75 0
1.25 2.25 2.25 0
1.25 2.75 2.25 0
1.25 2.25 2.75 0
1.25 2.71875 2.71875 0
0.25 1.75 1.5 0
0.25 2 1.75 0
0.25 1.75 2 0
0.25 1.5 1.75 0
0.5 1.75 1.75 0
0 1.75 1.75 0
0.75 1.75 1.5 0
0.75 2 1.75 0
0.75 1.75 2 0
0.75 1.5 1.75 0
1 1.75 1.75 0
1.25 1.75 1.5 0
1.25 2 1.75 0
1.25 1.75 2 0
1.25 1.5 1.75 0
1.5 1.75 1.75 0
0.75 2.25 1.5 0
0.75 2.5 1.75 0
0.75 2.25 2 0
1 2.25 1.75 0
0.5 2.25 1.75 0
0.25 2.25 1.5 0
0.2578125 2.4921875 1.75 0
0.25 2.25 2 0
0 2.25 1.75 0
0.28125 2.71875 1.5 0
0.3125 2.9375 1.75 0
0.28125 2.71875 2 0
0.5078125 2.7421875 1.75 0
0.0625 2.6875 1.75 0
0.75 2.75 1.5 0
0.75 3 1.75 0
0.75 2.75 2 0
1 2.75 1.75 0
1.25 2.25 1.5 0
1.25 2.5 1.75 0
1.25 2.25 2 0
1.5 2.25 1.75 0
1.25 2.75 1.5 0
1.25 3 1.75 0
1.25 2.75 2 0
1.5 2.75 1.75 0
0.25 2 2.25 0
0.2578125 1.75 2.4921875 0
0.25 1.5 2.25 0
0.5 1.75 2.25 0
0 1.75 2.25 0
0.75 2 2.25 0
0.75 1.75 2.5 0
0.75 1.5 2.25 0
1 1.75 2.25 0
0.28125 2 2.71875 0
0.3125 1.75 2.9375 0
0.28125 1.5 2.71875 0
0.5078125 1.75 2.7421875 0
0.0625 1.75 2.6875 0
0.75 2 2.75 0
0.75 1.75 3 0
0.75 1.5 2.75 0
1 1.75 2.75 0
0.75 2.5 2.25 0
0.75 2.25 2.5 0
1 2.25 2.25 0
0.5 2.25 2.25 0
0.2578125 2.4921875 2.25 0
0.2578125 2.25 2.4921875 0
0 2.25 2.25 0
0.3125 2.9375 2.25 0
0.28819444444444442 2.7118055555555558 2.4852430555555558 0
0.5078125 2.7421875 2.25 0
0.0625 2.6875 2.25 0
0.75 3 2.25 0
0.75 2.7421875 2.4921875 0
1 2.75 2.25 0
0.75 2.4921875 2.7421875 0
0.75 2.25 3 0
1 2.25 2.75 0
0.5078125 2.25 2.7421875 0
0.28819444444444442 2.4852430555555558 2.7118055555555558 0
0.3125 2.25 2.9375 0
0.0625 2.25 2.6875 0
0.33680555555555558 2.8819444444444446 2.6631944444444446 0
0.33680555555555558 2.6631944444444446 2.8819444444444446 0
0.51475694444444442 2.7118055555555558 2.7118055555555558 0
0.11805555555555555 2.6631944444444446 2.6631944444444446 0
0.75 2.9375 2.6875 0
0.75 2.6875 2.9375 0
1 2.71875 2.71875 0
1.25 2 2.25 0
1.25 1.75 2.5 0
1.25 1.5 2.25 0
1.5 1.75 2.25 0
1.25 2 2.75 0
1.25 1.75 3 0
1.25 1.5 2.75 0
1.5 1.75 2.75 0
1.25 2.5 2.25 0
1.25 2.25 2.5 0
1.5 2.25 2.25 0
1.25 3 2.25 0
1.25 2.7421875 2.4921875 0
1.5 2.75 2.25 0
1.25 2.4921875 2.7421875 0
1.25 2.25 3 0
1.5 2.25 2.75 0
1.25 2.9375 2.6875 0
1.25 2.6875 2.9375 0
1.5 2.71875 2.71875 0
0.5 1.75 1.5 0
0.25 2 1.5 0
0 1.75 1.5 0
0.25 1.5 1.5 0
0 2 1.75 0
0.25 2 2 0
0.5 2 1.75 0
0.5 1.75 2 0
0 1.75 2 0
0.25 1.5 2 0
0 1.5 1.75 0
0.5 1.5 1.75 0
1 1.75 1.5 0
0.75 2 1.5 0
0.75 1.5 1.5 0
0.75 2 2 0
1 2 1.75 0
1 1.75 2 0
0.75 1.5 2 0
1 1.5 1.75 0
1.5 1.75 1.5 0
1.25 2 1.5 0
1.25 1.5 1.5 0
1.25 2 2 0
1.5 2 1.75 0
1.5 1.75 2 0
1.25 1.5 2 0
1.5 1.5 1.75 0
1 2.25 1.5 0
0.75 2.5 1.5 0
0.5 2.25 1.5 0
0.501953125 2.498046875 1.75 0
0.75 2.5 2 0
1 2.5 1.75 0
1 2.25 2 0
0.5 2.25 2 0
0.2578125 2.4921875 1.5 0
0 2.25 1.5 0
0.015625 2.484375 1.75 0
0.2578125 2.4921875 2 0
0 2.25 2 0
0.5078125 2.7421875 1.5 0
0.3125 2.9375 1.5 0
0.0625 2.6875 1.5 0
0.15625 2.84375 1.75 0
0.3125 2.9375 2 0
0.515625 2.984375 1.75 0
0.5078125 2.7421875 2 0
0.0625 2.6875 2 0
1 2.75 1.5 0
0.75 3 1.5 0
0.75 3 2 0
1 3 1.75 0
1 2.75 2 0
1.5 2.25 1.5 0
1.25 2.5 1.5 0
1.25 2.5 2 0
1.5 2.5 1.75 0
1.5 2.25 2 0
1.5 2.75 1.5 0
1.25 3 1.5 0
1.25 3 2 0
1.5 3 1.75 0
1.5 2.75 2 0
0 2 2.25 0
0.2578125 2 2.4921875 0
0.5 2 2.25 0
0.501953125 1.75 2.498046875 0
0.015625 1.75 2.484375 0
0.2578125 1.5 2.4921875 0
0 1.5 2.25 0
0.5 1.5 2.25 0
0.75 2 2.5 0
1 2 2.25 0
1 1.75 2.5 0
0.75 1.5 2.5 0
1 1.5 2.25 0
0.0625 2 2.6875 0
0.3125 2 2.9375 0
0.5078125 2 2.7421875 0
0.515625 1.75 2.984375 0
0.15625 1.75 2.84375 0
0.3125 1.5 2.9375 0
0.0625 1.5 2.6875 0
0.5078125 1.5 2.7421875 0
0.75 2 3 0
1 2 2.75 0
1 1.75 3 0
0.75 1.5 3 0
1 1.5 2.75 0
0.501953125 2.498046875 2.25 0
0.75 2.498046875 2.498046875 0
1 2.5 2.25 0
1 2.25 2.5 0
0.501953125 2.25 2.498046875 0
0.015625 2.484375 2.25 0
0.2654079861111111 2.4904513888888888 2.4904513888888888 0
0.015625 2.25 2.484375 0
0.15625 2.84375 2.25 0
0.3185763888888889 2.9236111111111112 2.4782986111111112 0
0.515625 2.984375 2.25 0
0.50954861111111116 2.7345920138888888 2.4904513888888888 0
0.076388888888888895 2.6814236111111112 2.4782986111111112 0
0.75 2.984375 2.484375 0
1 3 2.25 0
1 2.7421875 2.4921875 0
0.50954861111111116 2.4904513888888888 2.7345920138888888 0
0.75 2.484375 2.984375 0
1 2.4921875 2.7421875 0
1 2.25 3 0
0.515625 2.25 2.984375 0
0.076388888888888895 2.4782986111111112 2.6814236111111112 0
0.3185763888888889 2.4782986111111112 2.9236111111111112 0
0.15625 2.25 2.84375 0
0.20052083333333334 2.799479166666667 2.651041666666667 0
0.34895833333333337 2.799479166666667 2.799479166666667 0
0.52170138888888884 2.9236111111111112 2.6814236111111112 0
0.52170138888888884 2.6814236111111112 2.9236111111111112 0
0.20052083333333334 2.651041666666667 2.799479166666667 0
0.75 2.84375 2.84375 0
1 2.9375 2.6875 0
1 2.6875 2.9375 0
1.25 2 2.5 0
1.5 2 2.25 0
1.5 1.75 2.5 0
1.25 1.5 2.5 0
1.5 1.5 2.25 0
1.25 2 3 0
1.5 2 2.75 0
1.5 1.75 3 0
1.25 1.5 3 0
1.5 1.5 2.75 0
1.25 2.498046875 2.498046875 0
1.5 2.5 2.25 0
1.5 2.25 2.5 0
1.25 2.984375 2.484375 0
1.5 3 2.25 0
1.5 2.7421875 2.4921875 0
1.25 2.484375 2.984375 0
1.5 2.4921875 2.7421875 0
1.5 2.25 3 0
1.25 2.84375 2.84375 0
1.5 2.9375 2.6875 0
1.5 2.6875 2.9375 0
0.5 1.5 1.5 0
0.5 2 1.5 0
0 2 1.5 0
0 1.5 1.5 0
0 2 2 0
0.5 2 2 0
0.5 1.5 2 0
0 1.5 2 0
1 1.5 1.5 0
1 2 1.5 0
1 2 2 0
1 1.5 2 0
1.4765625 1.5078125 1.5078125 0
1.5 2 1.5 0
1.5 2 2 0
1.5 1.5 2 0
1 2.5 1.5 0
0.501953125 2.498046875 1.5 0
0.501953125 2.498046875 2 0
1 2.5 2 0
0.015625 2.484375 1.5 0
0.015625 2.484375 2 0
0.515625 2.984375 1.5 0
0.15625 2.84375 1.5 0
0.15625 2.84375 2 0
0.515625 2.984375 2 0
1 3 1.5 0
1 3 2 0
1.5 2.5 1.5 0
1.5 2.5 2 0
1.5 3 1.5 0
1.5 3 2 0
0.015625 2 2.484375 0
0.501953125 2 2.498046875 0
0.501953125 1.5 2.498046875 0
0.015625 1.5 2.484375 0
1 2 2.5 0
1 1.5 2.5 0
0.15625 2 2.84375 0
0.515625 2 2.984375 0
0.515625 1.5 2.984375 0
0.15625 1.5 2.84375 0
1 2 3 0
1 1.5 3 0
0.50385199652777779 2.4961480034722223 2.4961480034722223 0
1 2.498046875 2.498046875 0
0.030815972222222224 2.4828559027777777 2.4828559027777777 0
0.16731770833333334 2.832682291666667 2.475260416666667 0
0.51714409722222221 2.9691840277777777 2.4828559027777777 0
1 2.984375 2.484375 0
0.51714409722222221 2.4828559027777777 2.9691840277777777 0
1 2.484375 2.984375 0
0.16731770833333334 2.475260416666667 2.832682291666667 0
0.24537037037037035 2.7546296296296298 2.7546296296296298 0
0.52473958333333337 2.832682291666667 2.832682291666667 0
1 2.84375 2.84375 0
1.5 2 2.5 0
1.5 1.5 2.5 0
1.5 2 3 0
1.5 1.5 3 0
1.5 2.498046875 2.498046875 0
1.5 2.984375 2.484375 0
1.5 2.484375 2.984375 0
1.5 2.84375 2.84375 0
Hexahedra
864
280 139 28 136 146 32 1 31 0
136 28 137 281 31 1 33 147 0
28 138 282 137 1 29 140 33 0
139 283 138 28 32 142 29 1 0
146 32 1 31 286 143 30 145 0
31 1 33 147 145 30 144 287 0
1 29 140 33 30 141 284 144 0
32 142 29 1 143 285 141 30 0
281 137 34 148 147 33 2 37 0
148 34 149 288 37 2 38 155 0
34 150 289 149 2 35 151 38 0
137 282 150 34 33 140 35 2 0
147 33 2 37 287 144 36 154 0
37 2 38 155 154 36 153 291 0
2 35 151 38 36 152 290 153 0
33 140 35 2 144 284 152 36 0
282 158 39 150 140 42 3 35 0
150 39 156 289 35 3 43 151 0
39 157 292 156 3 40 159 43 0
158 293 157 39 42 161 40 3 0
140 42 3 35 284 162 41 152 0
35 3 43 151 152 41 163 290 0
3 40 159 43 41 160 294 163 0
42 161 40 3 162 295 160 41 0
283 165 44 138 142 47 4 29 0
138 44 158 282 29 4 42 140 0
44 164 293 158 4 45 161 42 0
165 296 164 44 47 167 45 4 0
142 47 4 29 285 168 46 141 0
29 4 42 140 141 46 162 284 0
4 45 161 42 46 166 295 162 0
47 167 45 4 168 297 166 46 0
143 285 141 30 51 171 48 5 0
286 143 30 145 175 51 5 50 0
145 30 144 287 50 5 52 176 0
30 141 284 144 5 48 169 52 0
171 48 5 51 299 170 49 172 0
51 5 50 175 172 49 174 300 0
5 52 176 50 49 173 301 174 0
48 169 52 5 170 298 173 49 0
144 284 152 36 52 169 53 6 0
287 144 36 154 176 52 6 55 0
154 36 153 291 55 6 56 181 0
36 152 290 153 6 53 177 56 0
169 53 6 52 298 178 54 173 0
52 6 55 176 173 54 180 301 0
6 56 181 55 54 179 303 180 0
53 177 56 6 178 302 179 54 0
162 295 160 41 59 184 57 7 0
284 162 41 152 169 59 7 53 0
152 41 163 290 53 7 60 177 0
41 160 294 163 7 57 182 60 0
184 57 7 59 305 183 58 185 0
59 7 53 169 185 58 178 298 0
7 60 177 53 58 186 302 178 0
57 182 60 7 183 304 186 58 0
168 297 166 46 63 188 61 8 0
285 168 46 141 171 63 8 48 0
141 46 162 284 48 8 59 169 0
46 166 295 162 8 61 184 59 0
188 61 8 63 306 187 62 189 0
63 8 48 171 189 62 170 299 0
8 59 169 48 62 185 298 170 0
61 184 59 8 187 305 185 62 0
296 192 64 164 167 67 9 45 0
164 64 190 293 45 9 68 161 0
64 191 307 190 9 65 193 68 0
192 308 191 64 67 195 65 9 0
167 67 9 45 297 196 66 166 0
45 9 68 161 166 66 197 295 0
9 65 193 68 66 194 309 197 0
67 195 65 9 196 310 194 66 0
293 190 69 157 161 68 10 40 0
157 69 198 292 40 10 72 159 0
69 199 311 198 10 70 200 72 0
190 307 199 69 68 193 70 10 0
161 68 10 40 295 197 71 160 0
40 10 72 159 160 71 202 294 0
10 70 200 72 71 201 312 202 0
68 193 70 10 197 309 201 71 0
196 310 194 66 75 205 73 11 0
297 196 66 166 188 75 11 61 0
166 66 197 295 61 11 76 184 0
66 194 309 197 11 73 203 76 0
205 73 11 75 314 204 74 206 0
75 11 61 188 206 74 187 306 0
11 76 184 61 74 207 305 187 0
73 203 76 11 204 313 207 74 0
197 309 201 71 76 203 77 12 0
295 197 71 160 184 76 12 57 0
160 71 202 294 57 12 79 182 0
71 201 312 202 12 77 208 79 0
203 77 12 76 313 209 78 207 0
76 12 57 184 207 78 183 305 0
12 79 182 57 78 210 304 183 0
77 208 79 12 209 315 210 78 0
288 149 80 211 155 38 13 83 0
211 80 212 316 83 13 84 218 0
80 213 317 212 13 81 214 84 0
149 289 213 80 38 151 81 13 0
155 38 13 83 291 153 82 217 0
83 13 84 218 217 82 216 319 0
13 81 214 84 82 215 318 216 0
38 151 81 13 153 290 215 82 0
289 156 85 213 151 43 14 81 0
213 85 219 317 81 14 88 214 0
85 220 320 219 14 86 221 88 0
156 292 220 85 43 159 86 14 0
151 43 14 81 290 163 87 215 0
81 14 88 214 215 87 223 318 0
14 86 221 88 87 222 321 223 0
43 159 86 14 163 294 222 87 0
153 290 215 82 56 177 89 15 0
291 153 82 217 181 56 15 91 0
217 82 216 319 91 15 92 228 0
82 215 318 216 15 89 224 92 0
177 89 15 56 302 225 90 179 0
56 15 91 181 179 90 227 303 0
15 92 228 91 90 226 323 227 0
89 224 92 15 225 322 226 90 0
163 294 222 87 60 182 93 16 0
290 163 87 215 177 60 16 89 0
215 87 223 318 89 16 95 224 0
87 222 321 223 16 93 229 95 0
182 93 16 60 304 230 94 186 0
60 16 89 177 186 94 225 302 0
16 95 224 89 94 231 322 225 0
93 229 95 16 230 324 231 94 0
292 198 96 220 159 72 17 86 0
220 96 232 320 86 17 99 221 0
96 233 325 232 17 97 234 99 0
198 311 233 96 72 200 97 17 0
159 72 17 86 294 202 98 222 0
86 17 99 221 222 98 236 321 0
17 97 234 99 98 235 326 236 0
72 200 97 17 202 312 235 98 0
202 312 235 98 79 208 100 18 0
294 202 98 222 182 79 18 93 0
222 98 236 321 93 18 102 229 0
98 235 326 236 18 100 237 102 0
208 100 18 79 315 238 101 210 0
79 18 93 182 210 101 230 304 0
18 102 229 93 101 239 324 230 0
100 237 102 18 238 327 239 101 0
306 187 62 189 246 106 19 105 0
189 62 170 299 105 19 107 247 0
62 185 298 170 19 103 240 107 0
187 305 185 62 106 242 103 19 0
246 106 19 105 330 243 104 245 0
105 19 107 247 245 104 244 331 0
19 103 240 107 104 241 328 244 0
106 242 103 19 243 329 241 104 0
299 170 49 172 247 107 20 110 0
172 49 174 300 110 20 111 252 0
49 173 301 174 20 108 248 111 0
170 298 173 49 107 240 108 20 0
247 107 20 110 331 244 109 251 0
110 20 111 252 251 109 250 333 0
20 108 248 111 109 249 332 250 0
107 240 108 20 244 328 249 109 0
298 178 54 173 240 114 21 108 0
173 54 180 301 108 21 115 248 0
54 179 303 180 21 112 253 115 0
178 302 179 54 114 255 112 21 0
240 114 21 108 328 256 113 249 0
108 21 115 248 249 113 257 332 0
21 112 253 115 113 254 334 257 0
114 255 112 21 256 335 254 113 0
305 183 58 185 242 118 22 103 0
185 58 178 298 103 22 114 240 0
58 186 302 178 22 116 255 114 0
183 304 186 58 118 259 116 22 0
242 118 22 103 329 260 117 241 0
103 22 114 240 241 117 256 328 0
22 116 255 114 117 258 335 256 0
118 259 116 22 260 336 258 117 0
314 204 74 206 265 122 23 121 0
206 74 187 306 121 23 106 246 0
74 207 305 187 23 119 242 106 0
204 313 207 74 122 262 119 23 0
265 122 23 121 338 263 120 264 0
121 23 106 246 264 120 243 330 0
23 119 242 106 120 261 329 243 0
122 262 119 23 263 337 261 120 0
313 209 78 207 262 125 24 119 0
207 78 183 305 119 24 118 242 0
78 210 304 183 24 123 259 118 0
209 315 210 78 125 267 123 24 0
262 125 24 119 337 268 124 261 0
119 24 118 242 261 124 260 329 0
24 123 259 118 124 266 336 260 0
125 267 123 24 268 339 266 124 0
304 230 94 186 259 128 25 116 0
186 94 225 302 116 25 129 255 0
94 231 322 225 25 126 269 129 0
230 324 231 94 128 271 126 25 0
259 128 25 116 336 272 127 258 0
116 25 129 255 258 127 273 335 0
25 126 269 129 127 270 340 273 0
128 271 126 25 272 341 270 127 0
302 225 90 179 255 129 26 112 0
179 90 227 303 112 26 132 253 0
90 226 323 227 26 130 274 132 0
225 322 226 90 129 269 130 26 0
255 129 26 112 335 273 131 254 0
112 26 132 253 254 131 276 334 0
26 130 274 132 131 275 342 276 0
129 269 130 26 273 340 275 131 0
315 238 101 210 267 135 27 123 0
210 101 230 304 123 27 128 259 0
101 239 324 230 27 133 271 128 0
238 327 239 101 135 278 133 27 0
267 135 27 123 339 279 134 266 0
123 27 128 259 266 134 272 336 0
27 133 271 128 134 277 341 272 0
135 278 133 27 279 343 277 134 0
624 480 371 479 485 372 344 375 0
479 371 482 623 375 344 374 490 0
371 481 626 482 344 376 489 374 0
480 625 481 371 372 483 376 344 0
485 372 344 375 628 484 373 486 0
375 344 374 490 486 373 488 629 0
344 376 489 374 373 487 630 488 0
372 483 376 344 484 627 487 373 0
631 492 377 491 496 378 345 380 0
491 377 480 624 380 345 372 485 0
377 493 625 480 345 381 483 372 0
492 632 493 377 378 494 381 345 0
496 378 345 380 634 495 379 497 0
380 345 372 485 497 379 484 628 0
345 381 483 372 379 498 627 484 0
378 494 381 345 495 633 498 379 0
635 500 382 499 504 383 346 385 0
499 382 492 631 385 346 378 496 0
382 501 632 492 346 386 494 378 0
500 636 501 382 383 502 386 346 0
504 383 346 385 638 503 384 505 0
385 346 378 496 505 384 495 634 0
346 386 494 378 384 506 633 495 0
383 502 386 346 503 637 506 384 0
640 508 387 507 511 388 347 391 0
507 387 509 639 391 347 390 514 0
387 479 623 509 347 375 490 390 0
508 624 479 387 388 485 375 347 0
511 388 347 391 641 510 389 512 0
391 347 390 514 512 389 513 642 0
347 375 490 390 389 486 629 513 0
388 485 375 347 510 628 486 389 0
644 516 392 515 519 393 348 396 0
515 392 517 643 396 348 395 522 0
392 507 639 517 348 391 514 395 0
516 640 507 392 393 511 391 348 0
519 393 348 396 645 518 394 520 0
396 348 395 522 520 394 521 646 0
348 391 514 395 394 512 642 521 0
393 511 391 348 518 641 512 394 0
647 524 397 523 528 398 349 400 0
523 397 516 644 400 349 393 519 0
397 525 640 516 349 401 511 393 0
524 648 525 397 398 526 401 349 0
528 398 349 400 650 527 399 529 0
400 349 393 519 529 399 518 645 0
349 401 511 393 399 530 641 518 0
398 526 401 349 527 649 530 399 0
648 531 402 525 526 403 350 401 0
525 402 508 640 401 350 388 511 0
402 491 624 508 350 380 485 388 0
531 631 491 402 403 496 380 350 0
526 403 350 401 649 532 404 530 0
401 350 388 511 530 404 510 641 0
350 380 485 388 404 497 628 510 0
403 496 380 350 532 634 497 404 0
651 534 405 533 536 406 351 408 0
533 405 531 648 408 351 403 526 0
405 499 631 531 351 385 496 403 0
534 635 499 405 406 504 385 351 0
536 406 351 408 652 535 407 537 0
408 351 403 526 537 407 532 649 0
351 385 496 403 407 505 634 532 0
406 504 385 351 535 638 505 407 0
653 539 409 538 541 410 352 412 0
538 409 524 647 412 352 398 528 0
409 533 648 524 352 408 526 398 0
539 651 533 409 410 536 408 352 0
541 410 352 412 654 540 411 542 0
412 352 398 528 542 411 527 650 0
352 408 526 398 411 537 649 527 0
410 536 408 352 540 652 537 411 0
628 484 373 486 545 413 353 416 0
486 373 488 629 416 353 415 550 0
373 487 630 488 353 417 549 415 0
484 627 487 373 413 543 417 353 0
545 413 353 416 656 544 414 546 0
416 353 415 550 546 414 548 657 0
353 417 549 415 414 547 658 548 0
413 543 417 353 544 655 547 414 0
656 544 414 546 553 418 354 421 0
546 414 548 657 421 354 420 558 0
414 547 658 548 354 422 557 420 0
544 655 547 414 418 551 422 354 0
553 418 354 421 660 552 419 554 0
421 354 420 558 554 419 556 661 0
354 422 557 420 419 555 662 556 0
418 551 422 354 552 659 555 419 0
641 510 389 512 560 423 355 426 0
512 389 513 642 426 355 425 563 0
389 486 629 513 355 416 550 425 0
510 628 486 389 423 545 416 355 0
560 423 355 426 663 559 424 561 0
426 355 425 563 561 424 562 664 0
355 416 550 425 424 546 657 562 0
423 545 416 355 559 656 546 424 0
645 518 394 520 565 427 356 430 0
520 394 521 646 430 356 429 568 0
394 512 642 521 356 426 563 429 0
518 641 512 394 427 560 426 356 0
565 427 356 430 665 564 428 566 0
430 356 429 568 566 428 567 666 0
356 426 563 429 428 561 664 567 0
427 560 426 356 564 663 561 428 0
663 559 424 561 570 431 357 434 0
561 424 562 664 434 357 433 573 0
424 546 657 562 357 421 558 433 0
559 656 546 424 431 553 421 357 0
570 431 357 434 667 569 432 571 0
434 357 433 573 571 432 572 668 0
357 421 558 433 432 554 661 572 0
431 553 421 357 569 660 554 432 0
665 564 428 566 575 435 358 438 0
566 428 567 666 438 358 437 578 0
428 561 664 567 358 434 573 437 0
564 663 561 428 435 570 434 358 0
575 435 358 438 669 574 436 576 0
438 358 437 578 576 436 577 670 0
358 434 573 437 436 571 668 577 0
435 570 434 358 574 667 571 436 0
634 495 379 497 581 439 359 441 0
497 379 484 628 441 359 413 545 0
379 498 627 484 359 442 543 413 0
495 633 498 379 439 579 442 359 0
581 439 359 441 672 580 440 582 0
441 359 413 545 582 440 544 656 0
359 442 543 413 440 583 655 544 0
439 579 442 359 580 671 583 440 0
638 503 384 505 586 443 360 445 0
505 384 495 634 445 360 439 581 0
384 506 633 495 360 446 579 439 0
503 637 506 384 443 584 446 360 0
586 443 360 445 674 585 444 587 0
445 360 439 581 587 444 580 672 0
360 446 579 439 444 588 671 580 0
443 584 446 360 585 673 588 444 0
672 580 440 582 591 447 361 449 0
582 440 544 656 449 361 418 553 0
440 583 655 544 361 450 551 418 0
580 671 583 440 447 589 450 361 0
591 447 361 449 676 590 448 592 0
449 361 418 553 592 448 552 660 0
361 450 551 418 448 593 659 552 0
447 589 450 361 590 675 593 448 0
674 585 444 587 596 451 362 453 0
587 444 580 672 453 362 447 591 0
444 588 671 580 362 454 589 447 0
585 673 588 444 451 594 454 362 0
596 451 362 453 678 595 452 597 0
453 362 447 591 597 452 590 676 0
362 454 589 447 452 598 675 590 0
451 594 454 362 595 677 598 452 0
650 527 399 529 601 455 363 457 0
529 399 518 645 457 363 427 565 0
399 530 641 518 363 458 560 427 0
527 649 530 399 455 599 458 363 0
601 455 363 457 680 600 456 602 0
457 363 427 565 602 456 564 665 0
363 458 560 427 456 603 663 564 0
455 599 458 363 600 679 603 456 0
649 532 404 530 599 459 364 458 0
530 404 510 641 458 364 423 560 0
404 497 628 510 364 441 545 423 0
532 634 497 404 459 581 441 364 0
599 459 364 458 679 604 460 603 0
458 364 423 560 603 460 559 663 0
364 441 545 423 460 582 656 559 0
459 581 441 364 604 672 582 460 0
652 535 407 537 606 461 365 463 0
537 407 532 649 463 365 459 599 0
407 505 634 532 365 445 581 459 0
535 638 505 407 461 586 445 365 0
606 461 365 463 681 605 462 607 0
463 365 459 599 607 462 604 679 0
365 445 581 459 462 587 672 604 0
461 586 445 365 605 674 587 462 0
654 540 411 542 609 464 366 466 0
542 411 527 650 466 366 455 601 0
411 537 649 527 366 463 599 455 0
540 652 537 411 464 606 463 366 0
609 464 366 466 682 608 465 610 0
466 366 455 601 610 465 600 680 0
366 463 599 455 465 607 679 600 0
464 606 463 366 608 681 607 465 0
680 600 456 602 613 467 367 469 0
602 456 564 665 469 367 435 575 0
456 603 663 564 367 470 570 435 0
600 679 603 456 467 611 470 367 0
613 467 367 469 684 612 468 614 0
469 367 435 575 614 468 574 669 0
367 470 570 435 468 615 667 574 0
467 611 470 367 612 683 615 468 0
679 604 460 603 611 471 368 470 0
603 460 559 663 470 368 431 570 0
460 582 656 559 368 449 553 431 0
604 672 582 460 471 591 449 368 0
611 471 368 470 683 616 472 615 0
470 368 431 570 615 472 569 667 0
368 449 553 431 472 592 660 569 0
471 591 449 368 616 676 592 472 0
681 605 462 607 618 473 369 475 0
607 462 604 679 475 369 471 611 0
462 587 672 604 369 453 591 471 0
605 674 587 462 473 596 453 369 0
618 473 369 475 685 617 474 619 0
475 369 471 611 619 474 616 683 0
369 453 591 471 474 597 676 616 0
473 596 453 369 617 678 597 474 0
682 608 465 610 621 476 370 478 0
610 465 600 680 478 370 467 613 0
465 607 679 600 370 475 611 467 0
608 681 607 465 476 618 475 370 0
621 476 370 478 686 620 477 622 0
478 370 467 613 622 477 612 684 0
370 475 611 467 477 619 683 612 0
476 618 475 370 620 685 619 477 0
967 823 714 822 828 715 687 718 0
822 714 825 966 718 687 717 832 0
714 824 969 825 687 719 833 717 0
823 968 824 714 715 826 719 687 0
828 715 687 718 971 827 716 829 0
718 687 717 832 829 716 831 972 0
687 719 833 717 716 830 973 831 0
715 826 719 687 827 970 830 716 0
974 835 720 834 839 721 688 723 0
834 720 823 967 723 688 715 828 0
720 836 968 823 688 724 826 715 0
835 975 836 720 721 837 724 688 0
839 721 688 723 977 838 722 840 0
723 688 715 828 840 722 827 971 0
688 724 826 715 722 841 970 827 0
721 837 724 688 838 976 841 722 0
978 843 725 842 847 726 689 728 0
842 725 835 974 728 689 721 839 0
725 844 975 835 689 729 837 721 0
843 979 844 725 726 845 729 689 0
847 726 689 728 981 846 727 848 0
728 689 721 839 848 727 838 977 0
689 729 837 721 727 849 976 838 0
726 845 729 689 846 980 849 727 0
983 851 730 850 856 731 690 734 0
850 730 853 982 734 690 733 860 0
730 852 985 853 690 735 861 733 0
851 984 852 730 731 854 735 690 0
856 731 690 734 987 855 732 857 0
734 690 733 860 857 732 859 988 0
690 735 861 733 732 858 989 859 0
731 854 735 690 855 986 858 732 0
984 862 736 852 854 737 691 735 0
852 736 863 985 735 691 739 861 0
736 822 966 863 691 718 832 739 0
862 967 822 736 737 828 718 691 0
854 737 691 735 986 864 738 858 0
735 691 739 861 858 738 865 989 0
691 718 832 739 738 829 972 865 0
737 828 718 691 864 971 829 738 0
990 867 740 866 869 741 692 743 0
866 740 862 984 743 692 737 854 0
740 834 967 862 692 723 828 737 0
867 974 834 740 741 839 723 692 0
869 741 692 743 991 868 742 870 0
743 692 737 854 870 742 864 986 0
692 723 828 737 742 840 971 864 0
741 839 723 692 868 977 840 742 0
992 872 744 871 874 745 693 747 0
871 744 851 983 747 693 731 856 0
744 866 984 851 693 743 854 731 0
872 990 866 744 745 869 743 693 0
874 745 693 747 993 873 746 875 0
747 693 731 856 875 746 855 987 0
693 743 854 731 746 870 986 855 0
745 869 743 693 873 991 870 746 0
994 877 748 876 881 749 694 751 0
876 748 872 992 751 694 745 874 0
748 878 990 872 694 752 869 745 0
877 995 878 748 749 879 752 694 0
881 749 694 751 997 880 750 882 0
751 694 745 874 882 750 873 993 0
694 752 869 745 750 883 991 873 0
749 879 752 694 880 996 883 750 0
995 884 753 878 879 754 695 752 0
878 753 867 990 752 695 741 869 0
753 842 974 867 695 728 839 741 0
884 978 842 753 754 847 728 695 0
879 754 695 752 996 885 755 883 0
752 695 741 869 883 755 868 991 0
695 728 839 741 755 848 977 868 0
754 847 728 695 885 981 848 755 0
971 827 716 829 888 756 696 759 0
829 716 831 972 759 696 758 892 0
716 830 973 831 696 760 893 758 0
827 970 830 716 756 886 760 696 0
888 756 696 759 999 887 757 889 0
759 696 758 892 889 757 891 1000 0
696 760 893 758 757 890 1001 891 0
756 886 760 696 887 998 890 757 0
977 838 722 840 896 761 697 763 0
840 722 827 971 763 697 756 888 0
722 841 970 827 697 764 886 756 0
838 976 841 722 761 894 764 697 0
896 761 697 763 1003 895 762 897 0
763 697 756 888 897 762 887 999 0
697 764 886 756 762 898 998 887 0
761 894 764 697 895 1002 898 762 0
999 887 757 889 901 765 698 768 0
889 757 891 1000 768 698 767 905 0
757 890 1001 891 698 769 906 767 0
887 998 890 757 765 899 769 698 0
901 765 698 768 1005 900 766 902 0
768 698 767 905 902 766 904 1006 0
698 769 906 767 766 903 1007 904 0
765 899 769 698 900 1004 903 766 0
1003 895 762 897 909 770 699 772 0
897 762 887 999 772 699 765 901 0
762 898 998 887 699 773 899 765 0
895 1002 898 762 770 907 773 699 0
909 770 699 772 1009 908 771 910 0
772 699 765 901 910 771 900 1005 0
699 773 899 765 771 911 1004 900 0
770 907 773 699 908 1008 911 771 0
987 855 732 857 914 774 700 777 0
857 732 859 988 777 700 776 918 0
732 858 989 859 700 778 919 776 0
855 986 858 732 774 912 778 700 0
914 774 700 777 1011 913 775 915 0
777 700 776 918 915 775 917 1012 0
700 778 919 776 775 916 1013 917 0
774 912 778 700 913 1010 916 775 0
986 864 738 858 912 779 701 778 0
858 738 865 989 778 701 781 919 0
738 829 972 865 701 759 892 781 0
864 971 829 738 779 888 759 701 0
912 779 701 778 1010 920 780 916 0
778 701 781 919 916 780 921 1013 0
701 759 892 781 780 889 1000 921 0
779 888 759 701 920 999 889 780 0
991 868 742 870 923 782 702 784 0
870 742 864 986 784 702 779 912 0
742 840 971 864 702 763 888 779 0
868 977 840 742 782 896 763 702 0
923 782 702 784 1014 922 783 924 0
784 702 779 912 924 783 920 1010 0
702 763 888 779 783 897 999 920 0
782 896 763 702 922 1003 897 783 0
993 873 746 875 926 785 703 787 0
875 746 855 987 787 703 774 914 0
746 870 986 855 703 784 912 774 0
873 991 870 746 785 923 784 703 0
926 785 703 787 1015 925 786 927 0
787 703 774 914 927 786 913 1011 0
703 784 912 774 786 924 1010 913 0
785 923 784 703 925 1014 924 786 0
1011 913 775 915 930 788 704 791 0
915 775 917 1012 791 704 790 934 0
775 916 1013 917 704 792 935 790 0
913 1010 916 775 788 928 792 704 0
930 788 704 791 1017 929 789 931 0
791 704 790 934 931 789 933 1018 0
704 792 935 790 789 932 1019 933 0
788 928 792 704 929 1016 932 789 0
1010 920 780 916 928 793 705 792 0
916 780 921 1013 792 705 795 935 0
780 889 1000 921 705 768 905 795 0
920 999 889 780 793 901 768 705 0
928 793 705 792 1016 936 794 932 0
792 705 795 935 932 794 937 1019 0
705 768 905 795 794 902 1006 937 0
793 901 768 705 936 1005 902 794 0
1014 922 783 924 939 796 706 798 0
924 783 920 1010 798 706 793 928 0
783 897 999 920 706 772 901 793 0
922 1003 897 783 796 909 772 706 0
939 796 706 798 1020 938 797 940 0
798 706 793 928 940 797 936 1016 0
706 772 901 793 797 910 1005 936 0
796 909 772 706 938 1009 910 797 0
1015 925 786 927 942 799 707 801 0
927 786 913 1011 801 707 788 930 0
786 924 1010 913 707 798 928 788 0
925 1014 924 786 799 939 798 707 0
942 799 707 801 1021 941 800 943 0
801 707 788 930 943 800 929 1017 0
707 798 928 788 800 940 1016 929 0
799 939 798 707 941 1020 940 800 0
981 846 727 848 946 802 708 804 0
848 727 838 977 804 708 761 896 0
727 849 976 838 708 805 894 761 0
846 980 849 727 802 944 805 708 0
946 802 708 804 1023 945 803 947 0
804 708 761 896 947 803 895 1003 0
708 805 894 761 803 948 1002 895 0
802 944 805 708 945 1022 948 803 0
1023 945 803 947 951 806 709 808 0
947 803 895 1003 808 709 770 909 0
803 948 1002 895 709 809 907 770 0
945 1022 948 803 806 949 809 709 0
951 806 709 808 1025 950 807 952 0
808 709 770 909 952 807 908 1009 0
709 809 907 770 807 953 1008 908 0
806 949 809 709 950 1024 953 807 0
997 880 750 882 956 810 710 812 0
882 750 873 993 812 710 785 926 0
750 883 991 873 710 813 923 785 0
880 996 883 750 810 954 813 710 0
956 810 710 812 1027 955 811 957 0
812 710 785 926 957 811 925 1015 0
710 813 923 785 811 958 1014 925 0
810 954 813 710 955 1026 958 811 0
996 885 755 883 954 814 711 813 0
883 755 868 991 813 711 782 923 0
755 848 977 868 711 804 896 782 0
885 981 848 755 814 946 804 711 0
954 814 711 813 1026 959 815 958 0
813 711 782 923 958 815 922 1014 0
711 804 896 782 815 947 1003 922 0
814 946 804 711 959 1023 947 815 0
1027 955 811 957 962 816 712 818 0
957 811 925 1015 818 712 799 942 0
811 958 1014 925 712 819 939 799 0
955 1026 958 811 816 960 819 712 0
962 816 712 818 1029 961 817 963 0
818 712 799 942 963 817 941 1021 0
712 819 939 799 817 964 1020 941 0
816 960 819 712 961 1028 964 817 0
1026 959 815 958 960 820 713 819 0
958 815 922 1014 819 713 796 939 0
815 947 1003 922 713 808 909 796 0
959 1023 947 815 820 951 808 713 0
960 820 713 819 1028 965 821 964 0
819 713 796 939 964 821 938 1020 0
713 808 909 796 821 952 1009 938 0
820 951 808 713 965 1025 952 821 0
1310 1166 1057 1165 1171 1058 1030 1061 0
1165 1057 1168 1309 1061 1030 1060 1176 0
1057 1167 1312 1168 1030 1062 1175 1060 0
1166 1311 1167 1057 1058 1169 1062 1030 0
1171 1058 1030 1061 1314 1170 1059 1172 0
1061 1030 1060 1176 1172 1059 1174 1315 0
1030 1062 1175 1060 1059 1173 1316 1174 0
1058 1169 1062 1030 1170 1313 1173 1059 0
1318 1178 1063 1177 1181 1064 1031 1067 0
1177 1063 1179 1317 1067 1031 1066 1184 0
1063 1165 1309 1179 1031 1061 1176 1066 0
1178 1310 1165 1063 1064 1171 1061 1031 0
1181 1064 1031 1067 1319 1180 1065 1182 0
1067 1031 1066 1184 1182 1065 1183 1320 0
1031 1061 1176 1066 1065 1172 1315 1183 0
1064 1171 1061 1031 1180 1314 1172 1065 0
1322 1186 1068 1185 1189 1069 1032 1072 0
1185 1068 1187 1321 1072 1032 1071 1192 0
1068 1177 1317 1187 1032 1067 1184 1071 0
1186 1318 1177 1068 1069 1181 1067 1032 0
1189 1069 1032 1072 1323 1188 1070 1190 0
1072 1032 1071 1192 1190 1070 1191 1324 0
1032 1067 1184 1071 1070 1182 1320 1191 0
1069 1181 1067 1032 1188 1319 1182 1070 0
1325 1194 1073 1193 1198 1074 1033 1076 0
1193 1073 1178 1318 1076 1033 1064 1181 0
1073 1195 1310 1178 1033 1077 1171 1064 0
1194 1326 1195 1073 1074 1196 1077 1033 0
1198 1074 1033 1076 1328 1197 1075 1199 0
1076 1033 1064 1181 1199 1075 1180 1319 0
1033 1077 1171 1064 1075 1200 1314 1180 0
1074 1196 1077 1033 1197 1327 1200 1075 0
1326 1201 1078 1195 1196 1079 1034 1077 0
1195 1078 1166 1310 1077 1034 1058 1171 0
1078 1202 1311 1166 1034 1081 1169 1058 0
1201 1329 1202 1078 1079 1203 1081 1034 0
1196 1079 1034 1077 1327 1204 1080 1200 0
1077 1034 1058 1171 1200 1080 1170 1314 0
1034 1081 1169 1058 1080 1205 1313 1170 0
1079 1203 1081 1034 1204 1330 1205 1080 0
1331 1207 1082 1206 1211 1083 1035 1085 0
1206 1082 1201 1326 1085 1035 1079 1196 0
1082 1208 1329 1201 1035 1086 1203 1079 0
1207 1332 1208 1082 1083 1209 1086 1035 0
1211 1083 1035 1085 1334 1210 1084 1212 0
1085 1035 1079 1196 1212 1084 1204 1327 0
1035 1086 1203 1079 1084 1213 1330 1204 0
1083 1209 1086 1035 1210 1333 1213 1084 0
1335 1215 1087 1214 1217 1088 1036 1090 0
1214 1087 1194 1325 1090 1036 1074 1198 0
1087 1206 1326 1194 1036 1085 1196 1074 0
1215 1331 1206 1087 1088 1211 1085 1036 0
1217 1088 1036 1090 1336 1216 1089 1218 0
1090 1036 1074 1198 1218 1089 1197 1328 0
1036 1085 1196 1074 1089 1212 1327 1197 0
1088 1211 1085 1036 1216 1334 1212 1089 0
1337 1220 1091 1219 1222 1092 1037 1094 0
1219 1091 1186 1322 1094 1037 1069 1189 0
1091 1193 1318 1186 1037 1076 1181 1069 0
1220 1325 1193 1091 1092 1198 1076 1037 0
1222 1092 1037 1094 1338 1221 1093 1223 0
1094 1037 1069 1189 1223 1093 1188 1323 0
1037 1076 1181 1069 1093 1199 1319 1188 0
1092 1198 1076 1037 1221 1328 1199 1093 0
1339 1225 1095 1224 1227 1096 1038 1098 0
1224 1095 1220 1337 1098 1038 1092 1222 0
1095 1214 1325 1220 1038 1090 1198 1092 0
1225 1335 1214 1095 1096 1217 1090 1038 0
1227 1096 1038 1098 1340 1226 1097 1228 0
1098 1038 1092 1222 1228 1097 1221 1338 0
1038 1090 1198 1092 1097 1218 1328 1221 0
1096 1217 1090 1038 1226 1336 1218 1097 0
1314 1170 1059 1172 1231 1099 1039 1102 0
1172 1059 1174 1315 1102 1039 1101 1236 0
1059 1173 1316 1174 1039 1103 1235 1101 0
1170 1313 1173 1059 1099 1229 1103 1039 0
1231 1099 1039 1102 1342 1230 1100 1232 0
1102 1039 1101 1236 1232 1100 1234 1343 0
1039 1103 1235 1101 1100 1233 1344 1234 0
1099 1229 1103 1039 1230 1341 1233 1100 0
1319 1180 1065 1182 1238 1104 1040 1107 0
1182 1065 1183 1320 1107 1040 1106 1241 0
1065 1172 1315 1183 1040 1102 1236 1106 0
1180 1314 1172 1065 1104 1231 1102 1040 0
1238 1104 1040 1107 1345 1237 1105 1239 0
1107 1040 1106 1241 1239 1105 1240 1346 0
1040 1102 1236 1106 1105 1232 1343 1240 0
1104 1231 1102 1040 1237 1342 1232 1105 0
1342 1230 1100 1232 1244 1108 1041 1111 0
1232 1100 1234 1343 1111 1041 1110 1249 0
1100 1233 1344 1234 1041 1112 1248 1110 0
1230 1341 1233 1100 1108 1242 1112 1041 0
1244 1108 1041 1111 1348 1243 1109 1245 0
1111 1041 1110 1249 1245 1109 1247 1349 0
1041 1112 1248 1110 1109 1246 1350 1247 0
1108 1242 1112 1041 1243 1347 1246 1109 0
1345 1237 1105 1239 1251 1113 1042 1116 0
1239 1105 1240 1346 1116 1042 1115 1254 0
1105 1232 1343 1240 1042 1111 1249 1115 0
1237 1342 1232 1105 1113 1244 1111 1042 0
1251 1113 1042 1116 1351 1250 1114 1252 0
1116 1042 1115 1254 1252 1114 1253 1352 0
1042 1111 1249 1115 1114 1245 1349 1253 0
1113 1244 1111 1042 1250 1348 1245 1114 0
1328 1197 1075 1199 1257 1117 1043 1119 0
1199 1075 1180 1319 1119 1043 1104 1238 0
1075 1200 1314 1180 1043 1120 1231 1104 0
1197 1327 1200 1075 1117 1255 1120 1043 0
1257 1117 1043 1119 1354 1256 1118 1258 0
1119 1043 1104 1238 1258 1118 1237 1345 0
1043 1120 1231 1104 1118 1259 1342 1237 0
1117 1255 1120 1043 1256 1353 1259 1118 0
1327 1204 1080 1200 1255 1121 1044 1120 0
1200 1080 1170 1314 1120 1044 1099 1231 0
1080 1205 1313 1170 1044 1123 1229 1099 0
1204 1330 1205 1080 1121 1260 1123 1044 0
1255 1121 1044 1120 1353 1261 1122 1259 0
1120 1044 1099 1231 1259 1122 1230 1342 0
1044 1123 1229 1099 1122 1262 1341 1230 0
1121 1260 1123 1044 1261 1355 1262 1122 0
1334 1210 1084 1212 1265 1124 1045 1126 0
1212 1084 1204 1327 1126 1045 1121 1255 0
1084 1213 1330 1204 1045 1127 1260 1121 0
1210 1333 1213 1084 1124 1263 1127 1045 0
1265 1124 1045 1126 1357 1264 1125 1266 0
1126 1045 1121 1255 1266 1125 1261 1353 0
1045 1127 1260 1121 1125 1267 1355 1261 0
1124 1263 1127 1045 1264 1356 1267 1125 0
1336 1216 1089 1218 1269 1128 1046 1130 0
1218 1089 1197 1328 1130 1046 1117 1257 0
1089 1212 1327 1197 1046 1126 1255 1117 0
1216 1334 1212 1089 1128 1265 1126 1046 0
1269 1128 1046 1130 1358 1268 1129 1270 0
1130 1046 1117 1257 1270 1129 1256 1354 0
1046 1126 1255 1117 1129 1266 1353 1256 0
1128 1265 1126 1046 1268 1357 1266 1129 0
1354 1256 1118 1258 1273 1131 1047 1133 0
1258 1118 1237 1345 1133 1047 1113 1251 0
1118 1259 1342 1237 1047 1134 1244 1113 0
1256 1353 1259 1118 1131 1271 1134 1047 0
1273 1131 1047 1133 1360 1272 1132 1274 0
1133 1047 1113 1251 1274 1132 1250 1351 0
1047 1134 1244 1113 1132 1275 1348 1250 0
1131 1271 1134 1047 1272 1359 1275 1132 0
1353 1261 1122 1259 1271 1135 1048 1134 0
1259 1122 1230 1342 1134 1048 1108 1244 0
1122 1262 1341 1230 1048 1137 1242 1108 0
1261 1355 1262 1122 1135 1276 1137 1048 0
1271 1135 1048 1134 1359 1277 1136 1275 0
1134 1048 1108 1244 1275 1136 1243 1348 0
1048 1137 1242 1108 1136 1278 1347 1243 0
1135 1276 1137 1048 1277 1361 1278 1136 0
1357 1264 1125 1266 1281 1138 1049 1140 0
1266 1125 1261 1353 1140 1049 1135 1271 0
1125 1267 1355 1261 1049 1141 1276 1135 0
1264 1356 1267 1125 1138 1279 1141 1049 0
1281 1138 1049 1140 1363 1280 1139 1282 0
1140 1049 1135 1271 1282 1139 1277 1359 0
1049 1141 1276 1135 1139 1283 1361 1277 0
1138 1279 1141 1049 1280 1362 1283 1139 0
1358 1268 1129 1270 1285 1142 1050 1144 0
1270 1129 1256 1354 1144 1050 1131 1273 0
1129 1266 1353 1256 1050 1140 1271 1131 0
1268 1357 1266 1129 1142 1281 1140 1050 0
1285 1142 1050 1144 1364 1284 1143 1286 0
1144 1050 1131 1273 1286 1143 1272 1360 0
1050 1140 1271 1131 1143 1282 1359 1272 0
1142 1281 1140 1050 1284 1363 1282 1143 0
1323 1188 1070 1190 1288 1145 1051 1148 0
1190 1070 1191 1324 1148 1051 1147 1291 0
1070 1182 1320 1191 1051 1107 1241 1147 0
1188 1319 1182 1070 1145 1238 1107 1051 0
1288 1145 1051 1148 1365 1287 1146 1289 0
1148 1051 1147 1291 1289 1146 1290 1366 0
1051 1107 1241 1147 1146 1239 1346 1290 0
1145 1238 1107 1051 1287 1345 1239 1146 0
1365 1287 1146 1289 1293 1149 1052 1152 0
1289 1146 1290 1366 1152 1052 1151 1296 0
1146 1239 1346 1290 1052 1116 1254 1151 0
1287 1345 1239 1146 1149 1251 1116 1052 0
1293 1149 1052 1152 1367 1292 1150 1294 0
1152 1052 1151 1296 1294 1150 1295 1368 0
1052 1116 1254 1151 1150 1252 1352 1295 0
1149 1251 1116 1052 1292 1351 1252 1150 0
1338 1221 1093 1223 1298 1153 1053 1155 0
1223 1093 1188 1323 1155 1053 1145 1288 0
1093 1199 1319 1188 1053 1119 1238 1145 0
1221 1328 1199 1093 1153 1257 1119 1053 0
1298 1153 1053 1155 1369 1297 1154 1299 0
1155 1053 1145 1288 1299 1154 1287 1365 0
1053 1119 1238 1145 1154 1258 1345 1287 0
1153 1257 1119 1053 1297 1354 1258 1154 0
1340 1226 1097 1228 1301 1156 1054 1158 0
1228 1097 1221 1338 1158 1054 1153 1298 0
1097 1218 1328 1221 1054 1130 1257 1153 0
1226 1336 1218 1097 1156 1269 1130 1054 0
1301 1156 1054 1158 1370 1300 1157 1302 0
1158 1054 1153 1298 1302 1157 1297 1369 0
1054 1130 1257 1153 1157 1270 1354 1297 0
1156 1269 1130 1054 1300 1358 1270 1157 0
1369 1297 1154 1299 1304 1159 1055 1161 0
1299 1154 1287 1365 1161 1055 1149 1293 0
1154 1258 1345 1287 1055 1133 1251 1149 0
1297 1354 1258 1154 1159 1273 1133 1055 0
1304 1159 1055 1161 1371 1303 1160 1305 0
1161 1055 1149 1293 1305 1160 1292 1367 0
1055 1133 1251 1149 1160 1274 1351 1292 0
1159 1273 1133 1055 1303 1360 1274 1160 0
1370 1300 1157 1302 1307 1162 1056 1164 0
1302 1157 1297 1369 1164 1056 1159 1304 0
1157 1270 1354 1297 1056 1144 1273 1159 0
1300 1358 1270 1157 1162 1285 1144 1056 0
1307 1162 1056 1164 1372 1306 1163 1308 0
1164 1056 1159 1304 1308 1163 1303 1371 0
1056 1144 1273 1159 1163 1286 1360 1303 0
1162 1285 1144 1056 1306 1364 1286 1163 0
End

