MeshVersionFormatted 1
Dimension 3
Vertices
374
0.5 2.5 0.5 0
0.5 2.5 1.5 0
0.5 2.5 0 0
1 2.5 0.5 0
0.5 2.5 1 0
0 2.5 0.5 0
0.5 2 0.5 0
0.5 3 0.5 0
1 2.5 1.5 0
0.5 2.5 2 0
0 2.5 1.5 0
0.5 2 1.5 0
0.5 3 1.5 0
0.125 2.5 0.125 0
0.5 2.875 0.125 0
1 2.5 0 0
0.5 2 0 0
1 3 0.5 0
1 2.5 1 0
1 2 0.5 0
0.5 2 1 0
0.5 3 1 0
0 2.5 1 0
0 2 0.5 0
0.125 2.875 0.5 0
1 3 1.5 0
1 2.5 2 0
1 2 1.5 0
0.5 2 2 0
0.5 3 2 0
0 2.5 2 0
0 2 1.5 0
0.125 2.875 1.5 0
0.125 2 0.125 0
0.22222222222222221 2.7777777777777781 0.22222222222222221 0
1 2.875 0.125 0
1 2 0 0
1 3 1 0
1 2 1 0
0 2 1 0
0.125 2.875 1 0
1 3 2 0
0.984375 2.015625 1.96875 0
0 2 2 0
0.125 2.875 2 0
2.5 2.5 1.5 0
2.5 1.5 2.5 0
2.5 2.5 2.5 0
2.5 2.5 1 0
3 2.5 1.5 0
2.5 2.5 2 0
2 2.5 1.5 0
2.5 2 1.5 0
2.5 3 1.5 0
2.5 1.5 2 0
3 1.5 2.5 0
2.5 1.5 3 0
2 1.5 2.5 0
2.5 1 2.5 0
2.5 2 2.5 0
3 2.5 2.5 0
2.5 2.5 3 0
2 2.5 2.5 0
2.5 3 2.5 0
2.5 2 1 0
3 2.5 1 0
2.5 3 1 0
2 2.5 1 0
2.875 2.875 1.5 0
3 2.5 2 0
3 2 1.5 0
2.5 2 2 0
2.5 3 2 0
2 2.5 2 0
2 3 1.5 0
2 2 1.5 0
2.5 1 2 0
3 1.5 2 0
2 1.5 2 0
3 2 2.5 0
2.875 1.5 2.875 0
3 1 2.5 0
2.5 1 3 0
2.5 2 3 0
2 1.5 3 0
2 2 2.5 0
2 1 2.5 0
2.875 2.875 2.5 0
2.875 2.5 2.875 0
2.5 2.875 2.875 0
2 2.5 3 0
2 3 2.5 0
3 2 1 0
2.0089285714285712 2.0089285714285712 1.0089285714285714 0
2.875 2.875 1 0
2 3 1 0
2.875 2.875 2 0
3 2 2 0
2 2 2 0
2 3 2 0
3 1 2 0
2.015625 1.03125 2 0
2.875 2 2.875 0
2.875 1 2.875 0
2 1 3 0
2 2 3 0
2.7777777777777781 2.7777777777777781 2.7777777777777781 0
2 2.875 2.875 0
0.5 0.5 2.5 0
1.5 0.5 2.5 0
0.5 0.5 2 0
1 0.5 2.5 0
0.5 0.5 3 0
0 0.5 2.5 0
0.5 0 2.5 0
0.5 1 2.5 0
1.5 0.5 2 0
2 0.5 2.5 0
1.5 0.5 3 0
1.5 0 2.5 0
1.5 1 2.5 0
0.5 0 2 0
1 0.5 2 0
0.5 1 2 0
0 0.5 2 0
1 1 2.5 0
1 0.5 3 0
1 0 2.5 0
0.5 0.125 2.875 0
0.5 1 3 0
0.125 0.5 2.875 0
0.125 0.125 2.5 0
0 1 2.5 0
1.5 0 2 0
2 0.5 2 0
1.5 1 2 0
2 0.5 3 0
2 0 2.5 0
1.5 0.125 2.875 0
1.5 1 3 0
0.125 0.125 2 0
1 0 2 0
1 1 2 0
0 1 2 0
1 1 3 0
1 0.125 2.875 0
0.22222222222222221 0.22222222222222221 2.7777777777777781 0
0.125 1 2.875 0
2 0 2 0
1.96875 0.984375 2.015625 0
2 0.125 2.875 0
1.5 0.5 1.5 0
2.5 0.5 1.5 0
2.5 1.5 1.5 0
1.5 0.5 1 0
2 0.5 1.5 0
1 0.5 1.5 0
1.5 0 1.5 0
1.5 1 1.5 0
2.5 0.5 1 0
3 0.5 1.5 0
2.5 0.5 2 0
2.5 0 1.5 0
2.5 1 1.5 0
2.5 1.5 1 0
3 1.5 1.5 0
2 1.5 1.5 0
1.5 0 1 0
2 0.5 1 0
1.5 1 1 0
1 0.5 1 0
2 1 1.5 0
2 0 1.5 0
1 1 1.5 0
1 0 1.5 0
2.5 0 1 0
3 0.5 1 0
2.5 1 1 0
3 1 1.5 0
3 0.5 2 0
2.875 0.125 1.5 0
2.5 0 2 0
3 1.5 1 0
2 1.5 1 0
1 0 1 0
2 0 1 0
2 1 1 0
1.0089285714285714 0.9910714285714286 1.0089285714285714 0
2 1 2 0
1.0089285714285714 0.9910714285714286 1.9910714285714286 0
2.875 0.125 1 0
3 1 1 0
2.875 0.125 2 0
2 1.96875 1.015625 0
2 1.96875 1.984375 0
2.5 0.5 0.5 0
2.5 1.5 0.5 0
2.5 0.5 0 0
3 0.5 0.5 0
2 0.5 0.5 0
2.5 0 0.5 0
2.5 1 0.5 0
2.5 1.5 0 0
3 1.5 0.5 0
2 1.5 0.5 0
2.5 2 0.5 0
2 0.5 0 0
2.5 1 0 0
2.875 0.5 0.125 0
2.5 0.125 0.125 0
3 1 0.5 0
2.875 0.125 0.5 0
2 1 0.5 0
2 0 0.5 0
2 1.5 0 0
2.5 2 0 0
2.875 1.5 0.125 0
3 2 0.5 0
2 2 0.5 0
2 1 0 0
2 0.125 0.125 0
2.875 1 0.125 0
2.7777777777777781 0.22222222222222221 0.22222222222222221 0
2 2 0 0
2.875 2 0.125 0
2.015625 1.96875 0.984375 0
0.5 1.5 0.5 0
1.5 1.5 0.5 0
0.5 1.5 1.5 0
0.5 1.5 0 0
1 1.5 0.5 0
0.5 1.5 1 0
0 1.5 0.5 0
0.5 1 0.5 0
1.5 1.5 0 0
1.5 1.5 1 0
1.5 1 0.5 0
1.5 2 0.5 0
1 1.5 1.5 0
0.5 1.5 2 0
0 1.5 1.5 0
0.5 1 1.5 0
0.125 1.5 0.125 0
1 1.5 0 0
0.5 1 0 0
1 1.5 1 0
1 1 0.5 0
0.5 1 1 0
0 1.5 1 0
0 1 0.5 0
1.5 2 0 0
1.5 1 0 0
1.5 2 1 0
1 1.5 2 0
0 1.5 2 0
0 1 1.5 0
0.125 1 0.125 0
1 1 0 0
1 1 1 0
0 1 1 0
1.96875 1.984375 0.984375 0
1.96875 1.015625 0.984375 0
0.984375 1.984375 1.96875 0
0.984375 1.015625 1.96875 0
1.5 0.5 0.5 0
1.5 0.5 0 0
1 0.5 0.5 0
1.5 0 0.5 0
1 0.5 0 0
1.5 0.125 0.125 0
1 0 0.5 0
1 0.125 0.125 0
1.9910714285714286 0.9910714285714286 0.9910714285714286 0
1.0089285714285714 0.9910714285714286 0.9910714285714286 0
0.5 2.5 2.5 0
1 2.5 2.5 0
0.5 2.5 3 0
0 2.5 2.5 0
0.5 2 2.5 0
0.5 3 2.5 0
1 3 2.5 0
1 2.5 3 0
1 2 2.5 0
0.5 2 3 0
0.5 2.875 2.875 0
0.125 2.5 2.875 0
0 2 2.5 0
0.125 2.875 2.5 0
0.9910714285714286 2.0089285714285712 2.0089285714285712 0
1 2.875 2.875 0
1 2 3 0
0.125 2 2.875 0
0.22222222222222221 2.7777777777777781 2.7777777777777781 0
1.5 1.5 1.5 0
1.5 2.5 1.5 0
1.5 1.5 2 0
1.5 2 1.5 0
1.5 2.5 1 0
1.5 2.5 2 0
1.5 3 1.5 0
1.5 2 2 0
1.5 3 1 0
1.5 3 2 0
1.9910714285714286 1.0089285714285714 1.0089285714285714 0
1.0089285714285714 1.0089285714285714 1.0089285714285714 0
2 2 1 0
1.9910714285714286 1.0089285714285714 1.9910714285714286 0
1.0089285714285714 1.0089285714285714 1.9910714285714286 0
1 2 2 0
2.5 0.5 2.5 0
3 0.5 2.5 0
2.5 0.5 3 0
2.5 0 2.5 0
2.875 0.5 2.875 0
2.875 0.125 2.5 0
2.5 0.125 2.875 0
2.0089285714285712 0.9910714285714286 2.0089285714285712 0
2.7777777777777781 0.22222222222222221 2.7777777777777781 0
0.5 0.5 0.5 0
0.5 0.5 0 0
0.5 0.5 1 0
0 0.5 0.5 0
0.5 0 0.5 0
0.125 0.5 0.125 0
0.5 0.125 0.125 0
0.5 0 1 0
0 0.5 1 0
0.125 0.125 0.5 0
0.22222222222222221 0.22222222222222221 0.22222222222222221 0
0.9910714285714286 0.9910714285714286 0.9910714285714286 0
0.125 0.125 1 0
1.5 1.5 2.5 0
1.5 2.5 2.5 0
1.5 1.5 3 0
1 1.5 2.5 0
1.5 2 2.5 0
1.5 2.5 3 0
1.5 3 2.5 0
1.5 2 3 0
1 1.5 3 0
1.5 2.875 2.875 0
1.9910714285714286 1.0089285714285714 2.0089285714285712 0
1.0089285714285714 1.0089285714285714 2.0089285714285712 0
0.5 1.5 2.5 0
0.5 1.5 3 0
0 1.5 2.5 0
0.125 1.5 2.875 0
0.9910714285714286 1.0089285714285714 2.0089285714285712 0
0.9910714285714286 1.9910714285714286 2.0089285714285712 0
2.5 2.5 0.5 0
2.5 2.5 0 0
3 2.5 0.5 0
2 2.5 0.5 0
2.5 3 0.5 0
2 2.5 0 0
2.5 2.875 0.125 0
2.875 2.5 0.125 0
2.875 2.875 0.5 0
2 3 0.5 0
2 2.875 0.125 0
2.7777777777777781 2.7777777777777781 0.22222222222222221 0
2.0089285714285712 2.0089285714285712 0.9910714285714286 0
1.5 2.5 0.5 0
1.5 2.5 0 0
1.5 3 0.5 0
1.5 2.875 0.125 0
1.9910714285714286 2.0089285714285712 0.9910714285714286 0
1.0089285714285714 2.0089285714285712 0.9910714285714286 0
0.5 0.5 1.5 0
0 0.5 1.5 0
0.5 0 1.5 0
0.125 0.125 1.5 0
0.9910714285714286 0.9910714285714286 1.0089285714285714 0
0.9910714285714286 0.9910714285714286 1.9910714285714286 0
Hexahedra
216
34 14 3 17 24 6 1 7 0
14 35 15 3 6 25 8 1 0
3 15 36 16 1 8 18 4 0
17 3 16 37 7 1 4 20 0
24 6 1 7 40 23 5 21 0
6 25 8 1 23 41 22 5 0
1 8 18 4 5 22 38 19 0
7 1 4 20 21 5 19 39 0
21 5 19 39 12 2 9 28 0
40 23 5 21 32 11 2 12 0
23 41 22 5 11 33 13 2 0
5 22 38 19 2 13 26 9 0
28 12 2 9 43 29 10 27 0
12 32 11 2 29 44 31 10 0
2 11 33 13 10 31 45 30 0
9 2 13 26 27 10 30 42 0
93 65 49 66 71 53 46 50 0
65 94 68 49 53 76 52 46 0
49 68 96 67 46 52 75 54 0
66 49 67 95 50 46 54 69 0
71 53 46 50 98 72 51 70 0
53 76 52 46 72 99 74 51 0
46 52 75 54 51 74 100 73 0
50 46 54 69 70 51 73 97 0
101 77 55 78 82 59 47 56 0
77 102 79 55 59 87 58 47 0
55 79 99 72 47 58 86 60 0
78 55 72 98 56 47 60 80 0
82 59 47 56 104 83 57 81 0
59 87 58 47 83 105 85 57 0
47 58 86 60 57 85 106 84 0
56 47 60 80 81 57 84 103 0
98 72 51 70 80 60 48 61 0
72 99 74 51 60 86 63 48 0
51 74 100 73 48 63 92 64 0
70 51 73 97 61 48 64 88 0
80 60 48 61 103 84 62 89 0
60 86 63 48 84 106 91 62 0
48 63 92 64 62 91 108 90 0
61 48 64 88 89 62 90 107 0
142 122 111 123 128 115 109 112 0
122 141 125 111 115 132 114 109 0
111 125 144 124 109 114 133 116 0
123 111 124 143 112 109 116 126 0
128 115 109 112 146 129 113 127 0
115 132 114 109 129 147 131 113 0
109 114 133 116 113 131 148 130 0
112 109 116 126 127 113 130 145 0
149 134 117 135 138 120 110 118 0
134 142 123 117 120 128 112 110 0
117 123 143 136 110 112 126 121 0
135 117 136 150 118 110 121 87 0
138 120 110 118 151 139 119 137 0
120 128 112 110 139 146 127 119 0
110 112 126 121 119 127 145 140 0
118 110 121 87 137 119 140 105 0
186 168 155 169 173 158 152 156 0
168 185 171 155 158 175 157 152 0
155 171 188 170 152 157 174 159 0
169 155 170 187 156 152 159 172 0
173 158 152 156 149 134 117 135 0
158 175 157 152 134 142 123 117 0
152 157 174 159 117 123 190 136 0
156 152 159 172 135 117 136 189 0
191 176 160 177 181 163 153 161 0
176 186 169 160 163 173 156 153 0
160 169 187 178 153 156 172 164 0
177 160 178 192 161 153 164 179 0
181 163 153 161 193 182 162 180 0
163 173 156 153 182 149 135 162 0
153 156 172 164 162 135 189 77 0
161 153 164 179 180 162 77 101 0
192 178 165 183 179 164 154 166 0
178 187 184 165 164 172 167 154 0
165 184 194 65 154 167 76 53 0
183 165 65 93 166 154 53 71 0
179 164 154 166 101 77 55 78 0
164 172 167 154 77 189 79 55 0
154 167 76 53 55 79 195 72 0
166 154 53 71 78 55 72 98 0
221 207 198 210 214 200 196 201 0
207 220 208 198 200 213 202 196 0
198 208 222 209 196 202 211 199 0
210 198 209 223 201 196 199 212 0
214 200 196 201 186 169 160 176 0
200 213 202 196 169 187 178 160 0
196 202 211 199 160 178 192 177 0
201 196 199 212 176 160 177 191 0
220 215 203 208 213 205 197 202 0
215 224 216 203 205 219 206 197 0
203 216 225 217 197 206 218 204 0
208 203 217 222 202 197 204 211 0
213 205 197 202 187 184 165 178 0
205 219 206 197 184 226 65 165 0
197 206 218 204 165 65 93 183 0
202 197 204 211 178 165 183 192 0
257 243 230 245 250 233 227 234 0
243 34 17 230 233 24 7 227 0
230 17 37 244 227 7 20 231 0
245 230 244 258 234 227 231 247 0
250 233 227 234 260 249 232 248 0
233 24 7 227 249 40 21 232 0
227 7 20 231 232 21 39 246 0
234 227 231 247 248 232 246 259 0
258 244 235 252 247 231 228 237 0
244 37 251 235 231 20 238 228 0
235 251 224 215 228 238 219 205 0
252 235 215 220 237 228 205 213 0
247 231 228 237 259 246 236 170 0
231 20 238 228 246 39 253 236 0
228 238 219 205 236 253 261 184 0
237 228 205 213 170 236 184 262 0
248 232 246 259 242 229 239 174 0
260 249 232 248 256 241 229 242 0
249 40 21 232 241 32 12 229 0
232 21 39 246 229 12 28 239 0
174 242 229 239 264 124 240 254 0
242 256 241 229 124 144 255 240 0
229 241 32 12 240 255 44 29 0
239 229 12 28 254 240 29 263 0
272 269 266 270 271 267 265 268 0
269 258 252 266 267 247 237 265 0
266 252 220 207 265 237 213 200 0
270 266 207 221 268 265 200 214 0
271 267 265 268 185 171 155 168 0
267 247 237 265 171 274 170 155 0
265 237 213 200 155 170 273 169 0
268 265 200 214 168 155 169 186 0
289 29 10 27 283 279 275 276 0
29 44 31 10 279 287 278 275 0
10 31 45 30 275 278 288 280 0
27 10 30 42 276 275 280 281 0
283 279 275 276 291 284 277 282 0
279 287 278 275 284 292 286 277 0
275 278 288 280 277 286 293 285 0
276 275 280 281 282 277 285 290 0
304 170 236 184 172 159 294 167 0
170 305 246 236 159 174 239 294 0
246 39 253 236 239 28 297 294 0
184 236 253 306 167 294 297 76 0
172 159 294 167 307 136 296 79 0
159 174 239 294 136 308 254 296 0
294 239 28 297 296 254 309 301 0
167 294 297 76 79 296 301 99 0
306 253 298 68 76 297 295 52 0
253 39 19 298 297 28 9 295 0
298 19 38 302 295 9 26 300 0
68 298 302 96 52 295 300 75 0
76 297 295 52 99 301 299 74 0
297 28 9 295 301 309 27 299 0
295 9 26 300 299 27 42 303 0
52 295 300 75 74 299 303 100 0
193 182 162 180 315 313 310 311 0
182 149 135 162 313 138 118 310 0
162 135 317 77 310 118 87 59 0
180 162 77 101 311 310 59 82 0
315 313 310 311 318 316 312 314 0
313 138 118 310 316 151 137 312 0
310 118 87 59 312 137 105 83 0
311 310 59 82 314 312 83 104 0
329 324 320 325 328 322 319 323 0
324 257 245 320 322 250 234 319 0
320 245 258 269 319 234 247 267 0
325 320 269 272 323 319 267 271 0
328 322 319 323 331 327 321 326 0
322 250 234 319 327 260 248 321 0
319 234 247 267 321 248 330 171 0
323 319 267 271 326 321 171 185 0
342 136 296 79 87 121 332 58 0
136 343 254 296 121 126 335 332 0
296 254 309 301 332 335 283 336 0
79 296 301 99 58 332 336 86 0
87 121 332 58 105 140 334 85 0
121 126 335 332 140 145 340 334 0
332 335 283 336 334 340 291 339 0
58 332 336 86 85 334 339 106 0
99 301 299 74 86 336 333 63 0
301 309 27 299 336 283 276 333 0
299 27 42 303 333 276 281 338 0
74 299 303 100 63 333 338 92 0
86 336 333 63 106 339 337 91 0
336 283 276 333 339 291 282 337 0
333 276 281 338 337 282 290 341 0
63 333 338 92 91 337 341 108 0
348 124 240 254 126 116 344 335 0
124 144 255 240 116 133 346 344 0
240 255 44 29 344 346 287 279 0
254 240 29 349 335 344 279 283 0
126 116 344 335 145 130 345 340 0
116 133 346 344 130 148 347 345 0
344 346 287 279 345 347 292 284 0
335 344 279 283 340 345 284 291 0
224 355 351 216 219 353 350 206 0
355 360 356 351 353 359 354 350 0
351 356 361 357 350 354 358 352 0
216 351 357 225 206 350 352 218 0
219 353 350 206 362 68 49 65 0
353 359 354 350 68 96 67 49 0
350 354 358 352 49 67 95 66 0
206 350 352 218 65 49 66 93 0
37 16 364 251 20 4 363 238 0
16 36 366 364 4 18 365 363 0
364 366 360 355 363 365 359 353 0
251 364 355 224 238 363 353 219 0
20 4 363 238 368 19 298 253 0
4 18 365 363 19 38 302 298 0
363 365 359 353 298 302 96 68 0
238 363 353 219 253 298 68 367 0
326 321 171 185 371 369 157 175 0
331 327 321 326 372 370 369 371 0
327 260 248 321 370 256 242 369 0
171 321 248 373 157 369 242 174 0
175 371 369 157 142 122 111 123 0
371 372 370 369 122 141 125 111 0
369 370 256 242 111 125 144 124 0
157 369 242 174 123 111 124 374 0
End

